<svg width="163" height="62" viewBox="0 0 163 62" fill="none" xmlns="http://www.w3.org/2000/svg">
<path d="M63.2237 30V7.45454H67.3079V16.9989H77.755V7.45454H81.8501V30H77.755V20.4226H67.3079V30H63.2237ZM90.9817 30.3413C89.9102 30.3413 88.9451 30.1504 88.0865 29.7688C87.2351 29.3799 86.56 28.8074 86.0609 28.0515C85.5692 27.2956 85.3233 26.3635 85.3233 25.2553C85.3233 24.3013 85.4995 23.5123 85.8517 22.8885C86.204 22.2647 86.6847 21.7656 87.2939 21.3913C87.903 21.017 88.5892 20.7345 89.3525 20.5437C90.123 20.3455 90.9193 20.2024 91.7413 20.1143C92.7321 20.0116 93.5357 19.9199 94.1522 19.8391C94.7686 19.7511 95.2163 19.619 95.4952 19.4428C95.7814 19.2594 95.9245 18.9768 95.9245 18.5952V18.5291C95.9245 17.6998 95.6787 17.0576 95.187 16.6026C94.6953 16.1476 93.987 15.9201 93.0623 15.9201C92.0862 15.9201 91.312 16.1329 90.7395 16.5586C90.1744 16.9843 89.7928 17.487 89.5946 18.0668L85.8738 17.5384C86.1673 16.5109 86.6517 15.6522 87.3269 14.9624C88.0021 14.2652 88.8277 13.7441 89.8038 13.3991C90.7799 13.0469 91.8587 12.8707 93.0403 12.8707C93.8549 12.8707 94.6659 12.9661 95.4732 13.157C96.2805 13.3478 97.0181 13.6634 97.6859 14.1037C98.3538 14.5367 98.8895 15.1275 99.2931 15.8761C99.7041 16.6246 99.9096 17.5604 99.9096 18.6832V30H96.0787V27.6772H95.9466C95.7044 28.1469 95.3631 28.5872 94.9228 28.9982C94.4898 29.4019 93.943 29.7285 93.2825 29.978C92.6293 30.2202 91.8624 30.3413 90.9817 30.3413ZM92.0165 27.413C92.8165 27.413 93.51 27.2552 94.0971 26.9396C94.6842 26.6167 95.1356 26.1911 95.4512 25.6626C95.7741 25.1342 95.9355 24.5581 95.9355 23.9343V21.9418C95.8108 22.0445 95.598 22.1399 95.2971 22.228C95.0035 22.3161 94.6732 22.3931 94.3063 22.4592C93.9393 22.5252 93.5761 22.5839 93.2164 22.6353C92.8568 22.6867 92.5449 22.7307 92.2807 22.7674C91.6863 22.8481 91.1542 22.9802 90.6845 23.1637C90.2148 23.3472 89.8442 23.604 89.5726 23.9343C89.3011 24.2572 89.1653 24.6755 89.1653 25.1893C89.1653 25.9232 89.4332 26.4773 89.9689 26.8516C90.5047 27.2259 91.1872 27.413 92.0165 27.413ZM118.415 13.0909L112.393 30H107.99L101.968 13.0909H106.218L110.104 25.6516H110.28L114.177 13.0909H118.415ZM128.083 30.3303C126.388 30.3303 124.924 29.978 123.691 29.2734C122.465 28.5616 121.522 27.5561 120.862 26.2571C120.201 24.9508 119.871 23.4132 119.871 21.6445C119.871 19.9052 120.201 18.3787 120.862 17.065C121.529 15.744 122.461 14.7165 123.658 13.9826C124.854 13.2414 126.259 12.8707 127.874 12.8707C128.916 12.8707 129.9 13.0395 130.824 13.3771C131.756 13.7074 132.578 14.2211 133.29 14.9183C134.009 15.6155 134.575 16.5036 134.986 17.5824C135.397 18.6539 135.602 19.9309 135.602 21.4134V22.6353H121.742V19.9492H131.782C131.775 19.186 131.61 18.5071 131.287 17.9126C130.964 17.3108 130.512 16.8375 129.933 16.4925C129.36 16.1476 128.692 15.9751 127.929 15.9751C127.114 15.9751 126.399 16.1733 125.782 16.5696C125.166 16.9586 124.685 17.4723 124.34 18.1108C124.003 18.742 123.83 19.4355 123.823 20.1914V22.5362C123.823 23.5196 124.003 24.3636 124.362 25.0682C124.722 25.7654 125.225 26.3011 125.87 26.6754C126.516 27.0424 127.272 27.2259 128.138 27.2259C128.718 27.2259 129.243 27.1451 129.712 26.9837C130.182 26.8149 130.589 26.569 130.934 26.2461C131.279 25.9232 131.54 25.5232 131.716 25.0462L135.437 25.4645C135.202 26.4479 134.754 27.3066 134.094 28.0405C133.441 28.767 132.604 29.3321 131.584 29.7358C130.564 30.1321 129.397 30.3303 128.083 30.3303ZM142.958 20.0923V30H138.973V13.0909H142.782V15.9641H142.98C143.369 15.0174 143.99 14.2652 144.841 13.7074C145.7 13.1496 146.76 12.8707 148.022 12.8707C149.189 12.8707 150.206 13.1203 151.072 13.6193C151.945 14.1184 152.62 14.8413 153.097 15.788C153.582 16.7347 153.82 17.8833 153.813 19.2337V30H149.828V19.8501C149.828 18.7199 149.534 17.8356 148.947 17.1971C148.367 16.5586 147.564 16.2393 146.536 16.2393C145.839 16.2393 145.219 16.3935 144.676 16.7017C144.14 17.0026 143.718 17.4393 143.41 18.0117C143.109 18.5842 142.958 19.2777 142.958 20.0923ZM63.2216 56V39.2727H72.9002V40.6449H64.7489V46.9421H72.1406V48.3143H64.7489V56H63.2216ZM76.4123 56V43.4545H77.8743V56H76.4123ZM77.1555 41.2983C76.8561 41.2983 76.6001 41.1976 76.3878 40.9961C76.1754 40.7892 76.0692 40.5414 76.0692 40.2528C76.0692 39.9643 76.1754 39.7192 76.3878 39.5178C76.6001 39.3108 76.8561 39.2074 77.1555 39.2074C77.455 39.2074 77.7109 39.3108 77.9233 39.5178C78.1357 39.7192 78.2418 39.9643 78.2418 40.2528C78.2418 40.5414 78.1357 40.7892 77.9233 40.9961C77.7109 41.1976 77.455 41.2983 77.1555 41.2983ZM83.173 48.1591V56H81.7192V43.4545H83.1322V45.4229H83.2629C83.5569 44.7804 84.0143 44.2659 84.635 43.8793C85.2612 43.4872 86.0344 43.2912 86.9546 43.2912C87.7986 43.2912 88.5392 43.4682 89.1762 43.8221C89.8187 44.1706 90.317 44.6851 90.6709 45.3658C91.0303 46.0464 91.21 46.8822 91.21 47.8732V56H89.7561V47.9631C89.7561 46.9339 89.4675 46.1199 88.8904 45.521C88.3186 44.922 87.5509 44.6225 86.5871 44.6225C85.9282 44.6225 85.3429 44.7641 84.8311 45.0472C84.3192 45.3304 83.9136 45.7388 83.6141 46.2724C83.32 46.8005 83.173 47.4295 83.173 48.1591ZM98.5424 56.2859C97.7856 56.2859 97.094 56.1388 96.4679 55.8448C95.8417 55.5453 95.3435 55.1152 94.9732 54.5543C94.6029 53.988 94.4178 53.302 94.4178 52.4961C94.4178 51.8754 94.5349 51.3526 94.769 50.9279C95.0031 50.5032 95.3353 50.1547 95.7654 49.8825C96.1956 49.6102 96.7047 49.3951 97.2928 49.2372C97.8809 49.0793 98.5288 48.9568 99.2367 48.8697C99.9391 48.7826 100.533 48.7063 101.017 48.641C101.507 48.5756 101.88 48.4722 102.136 48.3306C102.392 48.189 102.52 47.9603 102.52 47.6445V47.3505C102.52 46.4956 102.264 45.8232 101.752 45.3331C101.246 44.8376 100.516 44.5898 99.5634 44.5898C98.6595 44.5898 97.9217 44.7886 97.35 45.1861C96.7837 45.5836 96.3862 46.0518 96.1575 46.5909L94.7772 46.0927C95.0603 45.4066 95.4524 44.8594 95.9533 44.451C96.4542 44.0372 97.0151 43.7404 97.6358 43.5607C98.2566 43.3756 98.8855 43.283 99.5225 43.283C100.002 43.283 100.5 43.3456 101.017 43.4709C101.54 43.5961 102.025 43.8139 102.471 44.1243C102.918 44.4292 103.28 44.8567 103.557 45.4066C103.835 45.9511 103.974 46.6426 103.974 47.4812V56H102.52V54.0153H102.43C102.256 54.3855 101.997 54.7449 101.654 55.0934C101.311 55.4419 100.881 55.7277 100.364 55.951C99.8465 56.1742 99.2394 56.2859 98.5424 56.2859ZM98.7385 54.9545C99.5117 54.9545 100.181 54.783 100.748 54.44C101.314 54.0969 101.75 53.6423 102.055 53.076C102.365 52.5043 102.52 51.8754 102.52 51.1893V49.3761C102.411 49.4795 102.229 49.5721 101.973 49.6538C101.722 49.7354 101.431 49.8089 101.099 49.8743C100.772 49.9342 100.445 49.9859 100.119 50.0295C99.7921 50.073 99.498 50.1112 99.2367 50.1438C98.5288 50.2309 97.9244 50.3671 97.4235 50.5522C96.9225 50.7373 96.5386 50.9933 96.2718 51.32C96.005 51.6412 95.8716 52.055 95.8716 52.5614C95.8716 53.3237 96.1439 53.9145 96.6884 54.3338C97.2329 54.7476 97.9163 54.9545 98.7385 54.9545ZM109.295 48.1591V56H107.841V43.4545H109.254V45.4229H109.385C109.679 44.7804 110.136 44.2659 110.757 43.8793C111.383 43.4872 112.156 43.2912 113.077 43.2912C113.921 43.2912 114.661 43.4682 115.298 43.8221C115.941 44.1706 116.439 44.6851 116.793 45.3658C117.152 46.0464 117.332 46.8822 117.332 47.8732V56H115.878V47.9631C115.878 46.9339 115.59 46.1199 115.012 45.521C114.441 44.922 113.673 44.6225 112.709 44.6225C112.05 44.6225 111.465 44.7641 110.953 45.0472C110.441 45.3304 110.036 45.7388 109.736 46.2724C109.442 46.8005 109.295 47.4295 109.295 48.1591ZM126.061 56.2614C124.939 56.2614 123.962 55.9809 123.129 55.4201C122.301 54.8593 121.659 54.0915 121.201 53.1168C120.744 52.1422 120.515 51.0314 120.515 49.7844C120.515 48.5266 120.747 47.4077 121.21 46.4276C121.678 45.4474 122.326 44.6797 123.153 44.1243C123.981 43.5634 124.942 43.283 126.037 43.283C126.875 43.283 127.635 43.4464 128.315 43.7731C128.996 44.0943 129.557 44.549 129.998 45.1371C130.444 45.7197 130.725 46.4003 130.839 47.179H129.369C129.217 46.4711 128.849 45.8667 128.266 45.3658C127.689 44.8594 126.954 44.6062 126.061 44.6062C125.261 44.6062 124.553 44.824 123.938 45.2596C123.322 45.6897 122.84 46.2914 122.492 47.0646C122.149 47.8324 121.977 48.7227 121.977 49.7354C121.977 50.7537 122.146 51.6548 122.484 52.4389C122.821 53.2176 123.295 53.8274 123.905 54.2685C124.52 54.7095 125.239 54.93 126.061 54.93C126.617 54.93 127.123 54.8266 127.58 54.6197C128.043 54.4073 128.43 54.1078 128.74 53.7212C129.056 53.3346 129.268 52.8745 129.377 52.3409H130.847C130.738 53.0978 130.469 53.773 130.039 54.3665C129.614 54.9545 129.061 55.4174 128.381 55.755C127.706 56.0926 126.932 56.2614 126.061 56.2614ZM133.98 56V43.4545H135.442V56H133.98ZM134.723 41.2983C134.423 41.2983 134.168 41.1976 133.955 40.9961C133.743 40.7892 133.637 40.5414 133.637 40.2528C133.637 39.9643 133.743 39.7192 133.955 39.5178C134.168 39.3108 134.423 39.2074 134.723 39.2074C135.022 39.2074 135.278 39.3108 135.491 39.5178C135.703 39.7192 135.809 39.9643 135.809 40.2528C135.809 40.5414 135.703 40.7892 135.491 40.9961C135.278 41.1976 135.022 41.2983 134.723 41.2983ZM142.79 56.2859C142.034 56.2859 141.342 56.1388 140.716 55.8448C140.09 55.5453 139.592 55.1152 139.221 54.5543C138.851 53.988 138.666 53.302 138.666 52.4961C138.666 51.8754 138.783 51.3526 139.017 50.9279C139.251 50.5032 139.583 50.1547 140.013 49.8825C140.444 49.6102 140.953 49.3951 141.541 49.2372C142.129 49.0793 142.777 48.9568 143.485 48.8697C144.187 48.7826 144.781 48.7063 145.265 48.641C145.755 48.5756 146.128 48.4722 146.384 48.3306C146.64 48.189 146.768 47.9603 146.768 47.6445V47.3505C146.768 46.4956 146.512 45.8232 146 45.3331C145.494 44.8376 144.764 44.5898 143.811 44.5898C142.908 44.5898 142.17 44.7886 141.598 45.1861C141.032 45.5836 140.634 46.0518 140.406 46.5909L139.025 46.0927C139.308 45.4066 139.7 44.8594 140.201 44.451C140.702 44.0372 141.263 43.7404 141.884 43.5607C142.505 43.3756 143.134 43.283 143.771 43.283C144.25 43.283 144.748 43.3456 145.265 43.4709C145.788 43.5961 146.273 43.8139 146.719 44.1243C147.166 44.4292 147.528 44.8567 147.805 45.4066C148.083 45.9511 148.222 46.6426 148.222 47.4812V56H146.768V54.0153H146.678C146.504 54.3855 146.245 54.7449 145.902 55.0934C145.559 55.4419 145.129 55.7277 144.612 55.951C144.095 56.1742 143.487 56.2859 142.79 56.2859ZM142.987 54.9545C143.76 54.9545 144.429 54.783 144.996 54.44C145.562 54.0969 145.998 53.6423 146.303 53.076C146.613 52.5043 146.768 51.8754 146.768 51.1893V49.3761C146.659 49.4795 146.477 49.5721 146.221 49.6538C145.97 49.7354 145.679 49.8089 145.347 49.8743C145.02 49.9342 144.694 49.9859 144.367 50.0295C144.04 50.073 143.746 50.1112 143.485 50.1438C142.777 50.2309 142.172 50.3671 141.672 50.5522C141.171 50.7373 140.787 50.9933 140.52 51.32C140.253 51.6412 140.12 52.055 140.12 52.5614C140.12 53.3237 140.392 53.9145 140.936 54.3338C141.481 54.7476 142.164 54.9545 142.987 54.9545ZM153.543 39.2727V56H152.089V39.2727H153.543Z" fill="#38B6AB"/>
<path d="M2.683 17.2332C2.81523 15.0025 4.58171 13.317 6.78835 12.965C9.01339 12.61 11.819 12.0877 14.0005 11.4346C16.7325 10.6168 20.4431 9.00798 22.7666 7.95274C24.1536 7.32284 25.7464 7.32284 27.1334 7.95274C29.457 9.00798 33.1675 10.6168 35.8995 11.4346C38.0811 12.0877 40.8867 12.61 43.1117 12.965C45.3183 13.317 47.0848 15.0025 47.217 17.2332C47.747 26.1731 46.9077 48.5374 26.323 55.3186C25.4419 55.6089 24.4582 55.6089 23.577 55.3186C2.99239 48.5374 2.15307 26.1731 2.683 17.2332Z" fill="#38B6AB"/>
</svg>
