<?xml version="1.0" encoding="UTF-8"?><svg id="Layer_2" xmlns="http://www.w3.org/2000/svg" viewBox="0 0 245.78 17.6"><defs><style>.cls-1{fill:#fff;stroke-width:0px;}</style></defs><g id="Layer_1-2"><path class="cls-1" d="m9.18,14.74c.83,0,1.53-.07,2.11-.22.58-.14,1.07-.34,1.48-.59l.76,2.7c-.43.25-1.04.48-1.84.67-.79.2-1.75.3-2.89.3-1.28,0-2.46-.2-3.54-.61-1.08-.4-2.01-.99-2.79-1.75-.78-.77-1.39-1.69-1.82-2.78-.43-1.09-.65-2.32-.65-3.69s.21-2.54.63-3.62,1.02-2,1.78-2.77,1.7-1.35,2.79-1.77c1.1-.41,2.32-.62,3.67-.62,1.15,0,2.1.11,2.85.32.75.22,1.35.45,1.82.7l-.84,2.73c-.47-.25-.99-.46-1.55-.63-.57-.17-1.2-.26-1.9-.26-.74,0-1.43.11-2.08.32-.65.22-1.22.56-1.7,1.04-.49.48-.87,1.09-1.15,1.84-.28.75-.42,1.65-.42,2.71s.13,1.91.4,2.66c.27.75.64,1.36,1.12,1.85.48.49,1.03.85,1.67,1.09.64.24,1.33.36,2.07.36Z"/><path class="cls-1" d="m19.87.3v17.01h-3.7V.3h3.7Z"/><path class="cls-1" d="m23.62.3h3.38l5.86,8.96c.4.61.76,1.21,1.09,1.8s.57,1.04.72,1.36h.05c-.11-1.17-.16-2.34-.16-3.5V.3h3.43v17.01h-3.38l-5.45-8.26c-.23-.36-.46-.73-.69-1.12s-.44-.76-.63-1.12c-.2-.36-.37-.69-.53-.99-.15-.3-.27-.54-.34-.74h-.05c.09,1.24.14,2.43.15,3.58,0,1.14.01,2.31.01,3.5v5.16h-3.46V.3Z"/><path class="cls-1" d="m47.65.3c1.31,0,2.51.17,3.59.51,1.08.34,2.01.85,2.78,1.54s1.37,1.53,1.8,2.55c.42,1.02.63,2.2.63,3.55,0,1.55-.25,2.88-.76,3.98-.5,1.11-1.19,2.02-2.05,2.75-.86.73-1.88,1.27-3.04,1.61-1.16.34-2.39.51-3.69.51h-5.21V.3h5.94Zm-2.24,14.15h1.27c.76,0,1.49-.09,2.2-.28.71-.19,1.34-.51,1.88-.97s.97-1.07,1.3-1.84c.32-.76.49-1.73.49-2.9,0-1.71-.49-3.02-1.46-3.93-.97-.91-2.28-1.36-3.92-1.36h-1.75v11.29Z"/><path class="cls-1" d="m61.1.3l3.62,6.61,3.67-6.61h4.02l-5.94,9.99v7.02h-3.7v-7.02L56.94.3h4.16Z"/><path class="cls-1" d="m79.3,8.13v2.73h-5.94v-2.73h5.94Z"/><path class="cls-1" d="m86.78.3h3.83l6.29,17.01h-3.92l-1.32-3.92h-6.05l-1.32,3.92h-3.86L86.78.3Zm-.32,10.37h4.32l-.78-2.27c-.25-.7-.49-1.41-.7-2.12-.22-.71-.42-1.43-.62-2.15h-.05c-.2.68-.41,1.38-.65,2.09-.23.71-.48,1.44-.73,2.17l-.78,2.27Z"/><path class="cls-1" d="m99.06.3h3.38l5.86,8.96c.4.61.76,1.21,1.09,1.8s.57,1.04.72,1.36h.05c-.11-1.17-.16-2.34-.16-3.5V.3h3.43v17.01h-3.38l-5.45-8.26c-.23-.36-.46-.73-.69-1.12s-.44-.76-.63-1.12c-.2-.36-.37-.69-.53-.99-.15-.3-.27-.54-.34-.74h-.05c.09,1.24.14,2.43.15,3.58,0,1.14.01,2.31.01,3.5v5.16h-3.46V.3Z"/><path class="cls-1" d="m117.15.3h3.38l5.86,8.96c.4.61.76,1.21,1.09,1.8s.57,1.04.72,1.36h.05c-.11-1.17-.16-2.34-.16-3.5V.3h3.43v17.01h-3.38l-5.45-8.26c-.23-.36-.46-.73-.69-1.12s-.44-.76-.63-1.12c-.2-.36-.37-.69-.53-.99-.15-.3-.27-.54-.34-.74h-.05c.09,1.24.14,2.43.15,3.58,0,1.14.01,2.31.01,3.5v5.16h-3.46V.3Z"/><path class="cls-1" d="m141.45.3h6.45c.95,0,1.8.14,2.52.42.73.28,1.34.66,1.82,1.13.49.48.85,1.04,1.09,1.67.24.64.36,1.33.36,2.07,0,.68-.1,1.29-.31,1.82-.21.53-.47.99-.78,1.38-.31.39-.67.71-1.05.97-.39.26-.76.47-1.12.63l4.16,6.91h-4.24l-3.27-6.26h-1.97v6.26h-3.67V.3Zm3.67,7.91h1.46c.97,0,1.77-.2,2.39-.59.62-.4.93-1.05.93-1.97,0-.81-.25-1.44-.74-1.88-.5-.44-1.22-.66-2.17-.66h-1.86v5.1Z"/><path class="cls-1" d="m164.56,0c1.21,0,2.32.2,3.35.59,1.03.4,1.91.97,2.65,1.71.74.75,1.32,1.67,1.74,2.77.42,1.1.63,2.35.63,3.75s-.22,2.59-.65,3.67c-.43,1.08-1.03,2-1.78,2.75-.76.76-1.65,1.34-2.69,1.74-1.04.41-2.16.61-3.36.61s-2.32-.19-3.35-.58c-1.03-.39-1.91-.95-2.65-1.7-.74-.75-1.32-1.67-1.74-2.75s-.63-2.34-.63-3.74.22-2.6.65-3.69c.43-1.09,1.03-2.02,1.78-2.78.76-.77,1.65-1.35,2.69-1.76,1.04-.4,2.16-.61,3.36-.61Zm-4.56,8.83c0,1.01.12,1.89.36,2.63.24.75.57,1.37.99,1.86.41.5.9.86,1.44,1.11.55.24,1.14.36,1.77.36s1.19-.12,1.74-.36c.55-.24,1.02-.61,1.42-1.11s.71-1.12.95-1.86c.23-.75.35-1.62.35-2.63s-.12-1.94-.36-2.7c-.24-.76-.57-1.38-.99-1.88-.41-.49-.9-.86-1.44-1.09-.55-.23-1.14-.35-1.77-.35s-1.22.13-1.76.38c-.54.25-1.01.63-1.4,1.12-.4.5-.71,1.12-.94,1.88-.23.76-.35,1.64-.35,2.65Z"/><path class="cls-1" d="m181.95.3c1.8,0,3.22.39,4.27,1.16,1.04.77,1.57,1.86,1.57,3.27,0,.52-.09.99-.28,1.4-.19.41-.43.77-.73,1.07s-.63.54-1,.74c-.37.2-.74.34-1.12.43.5.09.98.24,1.42.45.44.21.83.48,1.16.82.33.34.59.75.78,1.23.19.48.28,1.02.28,1.63,0,.7-.15,1.35-.46,1.93-.31.58-.74,1.09-1.31,1.53-.57.43-1.25.77-2.05,1-.8.23-1.69.35-2.66.35h-5.94V.3h6.08Zm-2.38,6.8h1.75c.81,0,1.45-.18,1.93-.53.48-.35.72-.88.72-1.58,0-.63-.22-1.1-.66-1.42s-1.08-.47-1.9-.47h-1.84v4Zm0,7.4h1.75c.92,0,1.67-.18,2.27-.53.59-.35.89-.96.89-1.82,0-.81-.32-1.39-.95-1.74s-1.4-.53-2.32-.53h-1.65v4.62Z"/><path class="cls-1" d="m191.27.3h11.07v2.86h-7.37v3.89h6.67v2.83h-6.67v4.56h7.45v2.86h-11.15V.3Z"/><path class="cls-1" d="m205.22.3h6.45c.95,0,1.8.14,2.52.42.73.28,1.34.66,1.82,1.13.49.48.85,1.04,1.09,1.67.24.64.36,1.33.36,2.07,0,.68-.1,1.29-.31,1.82-.21.53-.47.99-.78,1.38-.31.39-.67.71-1.05.97-.39.26-.76.47-1.12.63l4.16,6.91h-4.24l-3.27-6.26h-1.97v6.26h-3.67V.3Zm3.67,7.91h1.46c.97,0,1.77-.2,2.39-.59.62-.4.93-1.05.93-1.97,0-.81-.25-1.44-.74-1.88-.5-.44-1.22-.66-2.17-.66h-1.86v5.1Z"/><path class="cls-1" d="m232.12.3v2.92h-4.81v14.09h-3.7V3.21h-4.7V.3h13.2Z"/><path class="cls-1" d="m239.73,0c1.1,0,2.07.11,2.92.32.85.22,1.6.5,2.27.84l-.84,2.75c-.74-.36-1.45-.63-2.13-.82-.68-.19-1.35-.28-2-.28-.86,0-1.54.17-2.01.51s-.71.8-.71,1.38.21,1.04.62,1.35c.41.31,1.08.6,2,.89l1.62.51c1.35.45,2.41,1.09,3.17,1.92.76.83,1.15,1.85,1.15,3.05,0,.72-.13,1.4-.41,2.03-.27.63-.67,1.18-1.21,1.65-.54.47-1.21.84-2.02,1.11-.81.27-1.76.4-2.83.4-2.04,0-3.9-.41-5.59-1.24l.84-2.75c.77.38,1.53.67,2.27.88.74.21,1.51.31,2.32.31.95,0,1.67-.18,2.16-.53.49-.35.73-.84.73-1.47,0-.22-.04-.43-.12-.63-.08-.21-.23-.4-.45-.59-.22-.19-.51-.38-.88-.57-.37-.19-.85-.37-1.44-.55l-1.43-.49c-.63-.22-1.21-.47-1.73-.76-.52-.29-.97-.62-1.34-1s-.66-.82-.86-1.34c-.21-.51-.31-1.11-.31-1.8,0-.74.13-1.42.4-2.04.27-.62.67-1.16,1.2-1.61.53-.45,1.19-.8,1.97-1.05.78-.25,1.68-.38,2.69-.38Z"/></g></svg>