<?xml version="1.0" encoding="UTF-8"?><svg id="Layer_1" xmlns="http://www.w3.org/2000/svg" viewBox="0 0 1320 170"><defs><style>.cls-1{stroke:#231f20;stroke-miterlimit:10;stroke-width:2.18px;}.cls-1,.cls-2{fill:#231f20;}.cls-2{stroke-width:0px;}</style></defs><path class="cls-2" d="m554.29,15.16h21.27l-26.99,81.66h-21.62l-17.61-56.61-17.73,56.61h-21.16l-26.99-81.66h21.84l16.7,59.47,18.3-59.02h18.99l18.3,59.13,16.7-59.59Z"/><path class="cls-2" d="m607.81,15.16h20.13v81.66h-20.13V15.16Z"/><path class="cls-2" d="m668.32,15.16h20.13v65.08h48.95l-2.4,16.58h-66.68V15.16Z"/><path class="cls-2" d="m770.56,15.16h37.29c15.86,0,27.91,3.47,36.14,10.41,8.23,6.94,12.35,17.08,12.35,30.42s-4.33,23.1-12.98,30.19c-8.65,7.09-21.06,10.64-37.23,10.64h-35.57V15.16Zm65.19,40.72c0-16.32-9.23-24.48-27.68-24.48h-17.61v49.18h16.24c19.37,0,29.05-8.23,29.05-24.7Z"/><path class="cls-2" d="m888.94,55.99c0-8.31,1.79-15.69,5.38-22.13,3.58-6.44,8.81-11.51,15.67-15.21,6.86-3.7,15.21-5.55,25.05-5.55,22.87,0,36.75,9.45,41.63,28.36l-19.9,2.29c-1.76-4.96-4.35-8.54-7.78-10.75-3.43-2.21-8.08-3.32-13.95-3.32-7.85,0-14.01,2.29-18.47,6.86-4.46,4.57-6.69,11.06-6.69,19.44s2.23,14.87,6.69,19.44c4.46,4.57,10.73,6.86,18.81,6.86,12.73,0,20.2-4.88,22.42-14.64h20.24c-1.14,9.91-5.47,17.6-12.98,23.05-7.51,5.45-17.52,8.18-30.02,8.18-9.91,0-18.3-1.81-25.16-5.43-6.86-3.62-12.07-8.65-15.61-15.1-3.55-6.44-5.32-13.9-5.32-22.36Z"/><path class="cls-2" d="m1022.3,96.82h-20.7l36.83-81.66h23.1l36.83,81.66h-21.27l-7.55-17.38h-40.03l-7.21,17.38Zm27.33-65.54l-13.84,32.83h27.79l-13.95-32.83Z"/><path class="cls-2" d="m1139.87,31.74h-31.45V15.16h83.03v16.58h-31.45v65.08h-20.13V31.74Z"/><path class="cls-2" d="m1279.18,73.94c0-2.52-1.03-4.52-3.09-6-2.06-1.49-5.45-2.57-10.18-3.26l-14.53-2.17c-11.13-1.75-19.21-4.61-24.25-8.58-5.03-3.96-7.55-9.45-7.55-16.47,0-7.7,3.49-13.69,10.46-17.96,6.98-4.27,16.6-6.4,28.88-6.4,11.36,0,20.15,1.91,26.36,5.72,6.21,3.81,10.2,9.72,11.95,17.73l-19.21,2.17c-1.45-3.81-3.7-6.56-6.75-8.23-3.05-1.68-7.36-2.52-12.92-2.52-6.02,0-10.68.76-13.95,2.29-3.28,1.53-4.92,3.74-4.92,6.63,0,2.59.97,4.54,2.92,5.83,1.94,1.3,5.47,2.33,10.58,3.09l17.16,2.74c10.22,1.6,17.65,4.39,22.3,8.35,4.65,3.97,6.98,9.49,6.98,16.58,0,8.23-3.39,14.53-10.18,18.87-6.79,4.35-16.66,6.52-29.62,6.52-26.23,0-40.3-9.23-42.2-27.68h20.13c.84,4.35,3.07,7.57,6.69,9.66,3.62,2.1,8.79,3.15,15.5,3.15,6.33,0,11.15-.86,14.47-2.57,3.32-1.72,4.97-4.21,4.97-7.49Z"/><path class="cls-2" d="m481.51,156.37h-.71l-5.92-15.51c-.44-1.24-.88-2.09-1.34-2.53-.46-.44-1.05-.68-1.79-.7v-.89h7.34v.89c-.72,0-1.21.08-1.48.25-.27.17-.4.41-.4.73,0,.38.13.92.4,1.63l3.3,8.64.88,2.49h.14l3.36-9.03,1.34,2.28h-.83l-4.3,11.75Zm9.45,0h-.77l-4.44-12.2-.46-1.01-.94-2.72c-.3-.87-.58-1.5-.83-1.89-.25-.39-.53-.65-.85-.75-.32-.11-.76-.16-1.31-.16v-.89h7.43v.89c-1.44,0-2.16.34-2.16,1.01,0,.24.06.51.17.83.11.32.22.61.31.89l2.96,7.99.94,2.93h.14l3.24-9.83c.09-.32.18-.62.26-.92s.14-.59.19-.87c.05-.29.07-.55.07-.78,0-.45-.15-.77-.45-.96-.3-.19-.79-.28-1.45-.28v-.89h5.86v.89c-.66.02-1.17.18-1.51.47-.34.3-.65.82-.91,1.57l-5.49,16.7Z"/><path class="cls-2" d="m520.12,156.19h-15.19v-.89c.78,0,1.36-.05,1.75-.16.39-.11.65-.35.8-.73.14-.37.21-.95.21-1.72v-12.34c0-.75-.07-1.32-.21-1.72-.14-.39-.41-.66-.8-.8-.39-.14-.97-.21-1.75-.21v-.89h14.94l.17,4.85h-.91c-.13-.99-.34-1.73-.61-2.24-.28-.5-.72-.84-1.34-1.02-.62-.18-1.51-.27-2.69-.27h-4.18v7.52h3.33c.87,0,1.54-.08,1.99-.24.46-.16.77-.45.94-.89.17-.43.26-1.05.26-1.84h.91v6.87h-.91c0-.81-.08-1.41-.26-1.81-.17-.39-.48-.65-.94-.77-.46-.12-1.12-.18-1.99-.18h-3.33v8.14h3.67c1.1,0,1.99-.05,2.66-.16.67-.11,1.2-.31,1.59-.61.39-.3.71-.72.97-1.27.26-.55.53-1.27.81-2.16h.91l-.8,5.51Z"/><path class="cls-2" d="m528.86,156.63h-.88l-.26-6.39h.88c.34,1.36.74,2.4,1.19,3.12.46.72,1.02,1.21,1.69,1.48.67.27,1.49.4,2.46.4.72,0,1.34-.1,1.85-.31.51-.21.91-.54,1.19-1.01.29-.46.43-1.07.43-1.82,0-.87-.23-1.59-.7-2.16-.47-.57-1.06-1.08-1.78-1.52-.72-.44-1.47-.89-2.25-1.35-.76-.45-1.49-.94-2.19-1.45-.7-.51-1.28-1.12-1.72-1.84-.45-.71-.67-1.58-.67-2.6s.25-1.92.74-2.62c.49-.7,1.15-1.24,1.96-1.61.82-.37,1.72-.56,2.7-.56.87,0,1.55.07,2.02.22.47.15.85.3,1.12.46.27.16.53.24.75.24s.41-.06.56-.19c.14-.13.25-.35.33-.67h.74l.2,5.92h-.85c-.4-1.64-.93-2.85-1.59-3.64-.66-.79-1.72-1.17-3.16-1.15-.97,0-1.72.23-2.25.7-.53.46-.8,1.16-.8,2.09,0,.73.2,1.36.6,1.88.4.52.92.99,1.56,1.41.64.41,1.32.84,2.02,1.27.63.38,1.26.75,1.89,1.12.63.38,1.21.8,1.74,1.27.52.47.94,1.03,1.25,1.66.31.63.47,1.39.47,2.28,0,1.14-.25,2.11-.75,2.9-.5.79-1.19,1.39-2.06,1.79-.87.4-1.86.61-2.96.61-.99,0-1.79-.07-2.4-.22-.62-.15-1.1-.3-1.45-.44-.35-.15-.64-.22-.87-.22-.19,0-.36.09-.51.27-.15.18-.24.41-.26.71Z"/><path class="cls-2" d="m558.51,156.19h-8.25v-.89c.8,0,1.39-.06,1.79-.19.4-.13.66-.4.8-.83.13-.42.2-1.08.2-1.97v-14.24h-1.82c-1.04,0-1.83.11-2.35.33-.52.22-.9.61-1.12,1.18-.23.57-.45,1.4-.65,2.49h-.88l.31-5.33h15.74l.23,5.33h-.88c-.21-1.08-.43-1.91-.65-2.49-.23-.57-.6-.97-1.11-1.18-.51-.22-1.3-.33-2.36-.33h-1.79v14.24c0,.89.07,1.54.2,1.97.13.42.4.7.8.83s1.01.19,1.82.19v.89Z"/><path class="cls-2" d="m583.03,156.54c-.61,0-1.17-.08-1.69-.25-.52-.17-.94-.42-1.24-.77-.3-.35-.45-.78-.45-1.32,0-.45.11-.81.33-1.07.22-.26.53-.38.93-.38.34,0,.62.09.83.28.21.19.38.41.53.68.14.27.28.54.41.81.13.28.28.51.44.7.16.19.37.28.64.28.55,0,.91-.24,1.08-.71.17-.47.26-1.22.26-2.25v-11.9c0-.77-.04-1.38-.13-1.82-.09-.44-.32-.76-.71-.93-.39-.18-1.04-.27-1.95-.27v-.89h8.02v.89c-.78,0-1.36.09-1.74.27-.38.18-.62.49-.73.93-.1.44-.16,1.05-.16,1.82v11.04c0,.97-.11,1.77-.34,2.4-.23.63-.55,1.13-.97,1.49-.42.37-.91.62-1.48.76-.57.14-1.19.21-1.88.21Z"/><path class="cls-2" d="m606.42,156.54c-1.88,0-3.5-.4-4.85-1.21-1.36-.81-2.4-1.97-3.13-3.48-.73-1.51-1.1-3.31-1.1-5.4s.36-3.77,1.1-5.28c.73-1.51,1.77-2.68,3.13-3.52,1.36-.84,2.97-1.26,4.85-1.26s3.52.41,4.87,1.23c1.35.82,2.38,1.96,3.1,3.43.72,1.47,1.08,3.18,1.08,5.14,0,2.07-.37,3.88-1.1,5.43-.73,1.55-1.77,2.76-3.12,3.63-1.35.87-2.96,1.3-4.84,1.3Zm.03-1.24c2.03,0,3.54-.76,4.54-2.28,1-1.52,1.49-3.77,1.49-6.75,0-1.78-.26-3.31-.77-4.6-.51-1.29-1.23-2.29-2.15-2.99-.92-.7-2-1.05-3.23-1.05-1.84,0-3.3.76-4.38,2.29-1.08,1.53-1.62,3.65-1.62,6.35s.51,4.98,1.52,6.6c1.01,1.62,2.55,2.43,4.6,2.43Z"/><path class="cls-2" d="m631.09,156.19h-8.17v-.89c.85,0,1.47-.06,1.86-.19.39-.13.64-.41.74-.84.1-.43.16-1.08.16-1.95v-11.66c0-.77-.05-1.38-.14-1.82-.1-.44-.34-.76-.73-.93-.39-.18-1.02-.27-1.89-.27v-.89h8.17v.89c-.89,0-1.54.09-1.93.27-.4.18-.64.49-.73.93-.09.44-.13,1.05-.13,1.82v4.97h9.33v-4.97c0-.77-.05-1.38-.14-1.82-.09-.44-.34-.76-.73-.93-.39-.18-1.02-.27-1.89-.27v-.89h8.14v.89c-.89,0-1.54.09-1.93.27-.4.18-.64.48-.73.92-.09.43-.13,1.05-.13,1.84v11.66c0,.85.05,1.49.16,1.92.1.43.36.72.75.86.4.14,1.02.21,1.88.21v.89h-8.14v-.89c.85,0,1.47-.07,1.86-.21.39-.14.64-.42.74-.86.1-.43.16-1.08.16-1.92v-5.54h-9.33v5.54c0,.87.05,1.52.16,1.94.1.42.36.71.75.84.4.14,1.02.21,1.88.21v.89Z"/><path class="cls-2" d="m666.77,156.42h-.94l-11.78-15.84h-.8l-.51-1.15c-.36-.51-.68-.9-.95-1.15-.27-.26-.56-.43-.85-.52-.29-.09-.66-.13-1.1-.13v-.89h4.84l10.53,14.3h.14v-9.59c0-.93-.06-1.67-.17-2.22-.11-.55-.36-.96-.74-1.21-.38-.26-.98-.38-1.79-.38v-.89h6.72v.89c-.72,0-1.27.13-1.65.4-.38.27-.63.69-.75,1.27-.12.58-.18,1.35-.18,2.29v14.83Zm-10.27-.24h-6.66v-.89c.76,0,1.33-.08,1.71-.25.38-.17.64-.51.77-1.02.13-.51.2-1.26.2-2.25v-13.26h1.39v13.26c0,.99.07,1.73.2,2.23.13.5.39.84.77,1.02.38.18.92.27,1.62.27v.89Z"/><path class="cls-2" d="m677.27,156.63h-.88l-.26-6.39h.88c.34,1.36.74,2.4,1.19,3.12.46.72,1.02,1.21,1.69,1.48.67.27,1.49.4,2.46.4.72,0,1.34-.1,1.85-.31.51-.21.91-.54,1.2-1.01.28-.46.43-1.07.43-1.82,0-.87-.23-1.59-.7-2.16-.47-.57-1.06-1.08-1.78-1.52-.72-.44-1.47-.89-2.25-1.35-.76-.45-1.49-.94-2.19-1.45-.7-.51-1.28-1.12-1.72-1.84-.45-.71-.67-1.58-.67-2.6s.25-1.92.74-2.62c.49-.7,1.15-1.24,1.96-1.61.82-.37,1.72-.56,2.7-.56.87,0,1.55.07,2.02.22.47.15.85.3,1.12.46.27.16.53.24.75.24s.41-.06.55-.19c.14-.13.25-.35.33-.67h.74l.2,5.92h-.85c-.4-1.64-.93-2.85-1.59-3.64-.66-.79-1.72-1.17-3.16-1.15-.97,0-1.72.23-2.25.7-.53.46-.8,1.16-.8,2.09,0,.73.2,1.36.6,1.88.4.52.92.99,1.56,1.41.65.41,1.32.84,2.02,1.27.63.38,1.26.75,1.89,1.12.63.38,1.21.8,1.73,1.27.52.47.94,1.03,1.25,1.66.31.63.47,1.39.47,2.28,0,1.14-.25,2.11-.75,2.9-.5.79-1.19,1.39-2.06,1.79-.87.4-1.86.61-2.96.61-.99,0-1.79-.07-2.4-.22-.62-.15-1.1-.3-1.45-.44-.35-.15-.64-.22-.87-.22-.19,0-.36.09-.51.27-.15.18-.24.41-.26.71Z"/><path class="cls-2" d="m706.92,156.19h-8.25v-.89c.8,0,1.39-.06,1.79-.19.4-.13.66-.4.8-.83.13-.42.2-1.08.2-1.97v-14.24h-1.82c-1.04,0-1.83.11-2.35.33-.52.22-.9.61-1.12,1.18s-.45,1.4-.65,2.49h-.88l.31-5.33h15.73l.23,5.33h-.88c-.21-1.08-.43-1.91-.65-2.49-.23-.57-.6-.97-1.11-1.18-.51-.22-1.3-.33-2.36-.33h-1.79v14.24c0,.89.07,1.54.2,1.97.13.42.4.7.8.83s1.01.19,1.82.19v.89Z"/><path class="cls-2" d="m726.58,156.54c-1.88,0-3.5-.4-4.85-1.21-1.36-.81-2.4-1.97-3.13-3.48-.73-1.51-1.1-3.31-1.1-5.4s.37-3.77,1.1-5.28c.73-1.51,1.77-2.68,3.13-3.52,1.36-.84,2.97-1.26,4.85-1.26s3.52.41,4.87,1.23c1.35.82,2.38,1.96,3.1,3.43.72,1.47,1.08,3.18,1.08,5.14,0,2.07-.36,3.88-1.1,5.43-.73,1.55-1.77,2.76-3.12,3.63-1.35.87-2.96,1.3-4.84,1.3Zm.03-1.24c2.03,0,3.54-.76,4.54-2.28,1-1.52,1.49-3.77,1.49-6.75,0-1.78-.26-3.31-.77-4.6-.51-1.29-1.23-2.29-2.15-2.99-.92-.7-2-1.05-3.23-1.05-1.84,0-3.3.76-4.38,2.29-1.08,1.53-1.62,3.65-1.62,6.35s.51,4.98,1.52,6.6c1.01,1.62,2.55,2.43,4.6,2.43Z"/><path class="cls-2" d="m759.82,156.42h-.94l-11.78-15.84h-.8l-.51-1.15c-.36-.51-.68-.9-.95-1.15-.28-.26-.56-.43-.85-.52-.29-.09-.66-.13-1.1-.13v-.89h4.84l10.53,14.3h.14v-9.59c0-.93-.06-1.67-.17-2.22-.11-.55-.36-.96-.74-1.21-.38-.26-.98-.38-1.79-.38v-.89h6.71v.89c-.72,0-1.27.13-1.65.4-.38.27-.63.69-.75,1.27-.12.58-.18,1.35-.18,2.29v14.83Zm-10.27-.24h-6.66v-.89c.76,0,1.33-.08,1.71-.25.38-.17.64-.51.77-1.02.13-.51.2-1.26.2-2.25v-13.26h1.39v13.26c0,.99.07,1.73.2,2.23.13.5.39.84.77,1.02.38.18.92.27,1.62.27v.89Z"/><path class="cls-2" d="m789.07,156.19h-8.17v-.89c.85,0,1.47-.06,1.86-.19.39-.13.64-.41.74-.84.1-.43.16-1.08.16-1.95v-11.66c0-.77-.05-1.38-.14-1.82-.09-.44-.34-.76-.72-.93-.39-.18-1.02-.27-1.89-.27v-.89h8.17v.89c-.89,0-1.54.09-1.93.27-.4.18-.64.49-.73.93-.09.44-.13,1.05-.13,1.82v4.97h9.33v-4.97c0-.77-.05-1.38-.14-1.82-.1-.44-.34-.76-.72-.93-.39-.18-1.02-.27-1.89-.27v-.89h8.14v.89c-.89,0-1.54.09-1.93.27-.4.18-.64.48-.73.92-.08.43-.13,1.05-.13,1.84v11.66c0,.85.05,1.49.16,1.92.1.43.36.72.75.86.4.14,1.02.21,1.88.21v.89h-8.14v-.89c.85,0,1.48-.07,1.86-.21.39-.14.64-.42.74-.86.11-.43.16-1.08.16-1.92v-5.54h-9.33v5.54c0,.87.05,1.52.16,1.94.11.42.36.71.76.84.4.14,1.02.21,1.88.21v.89Z"/><path class="cls-2" d="m816.15,156.19h-8.19v-.89c.85,0,1.48-.07,1.88-.22.4-.15.65-.43.77-.86.11-.42.17-1.06.17-1.91v-11.66c0-.77-.05-1.38-.14-1.82-.09-.44-.34-.76-.72-.93-.39-.18-1.04-.27-1.95-.27v-.89h8.19v.89c-.89,0-1.54.09-1.93.27-.4.18-.64.49-.73.93-.08.44-.13,1.05-.13,1.82v11.66c0,.85.06,1.49.17,1.91s.37.71.77.86c.4.15,1.01.22,1.85.22v.89Z"/><path class="cls-2" d="m832.69,156.51c-3.02,0-5.29-.87-6.82-2.62-1.53-1.75-2.29-4.2-2.29-7.36,0-2.19.4-4.04,1.21-5.55.81-1.51,1.91-2.65,3.3-3.43,1.39-.78,2.98-1.17,4.77-1.17,1.04,0,1.87.09,2.49.27.62.18,1.1.36,1.45.53.35.18.64.27.87.27.25,0,.43-.1.55-.3.12-.2.28-.45.47-.77h.83v6.78h-.97c-.32-1.97-.97-3.38-1.94-4.23-.97-.85-2.21-1.27-3.73-1.27-2.01,0-3.57.76-4.68,2.29-1.11,1.53-1.66,3.61-1.66,6.23,0,3.02.58,5.27,1.75,6.76,1.17,1.49,2.76,2.23,4.8,2.23.89,0,1.65-.14,2.26-.41.62-.28,1.21-.63,1.78-1.07v-3.2c0-.71-.06-1.25-.17-1.61s-.35-.61-.71-.74c-.36-.13-.9-.19-1.62-.19v-.95h7.03v.95c-.8,0-1.32.14-1.56.43-.25.29-.37.89-.37,1.82v4.29c-1.02.61-2.06,1.1-3.1,1.47-1.04.36-2.35.55-3.93.55Z"/><path class="cls-2" d="m856.84,156.19h-8.17v-.89c.85,0,1.48-.06,1.86-.19.39-.13.64-.41.74-.84.1-.43.16-1.08.16-1.95v-11.66c0-.77-.05-1.38-.14-1.82-.1-.44-.34-.76-.73-.93-.39-.18-1.02-.27-1.89-.27v-.89h8.17v.89c-.89,0-1.54.09-1.94.27-.4.18-.64.49-.73.93-.08.44-.13,1.05-.13,1.82v4.97h9.33v-4.97c0-.77-.05-1.38-.14-1.82-.1-.44-.34-.76-.73-.93-.39-.18-1.02-.27-1.89-.27v-.89h8.14v.89c-.89,0-1.54.09-1.94.27-.4.18-.64.48-.72.92-.09.43-.13,1.05-.13,1.84v11.66c0,.85.05,1.49.16,1.92.1.43.36.72.75.86.4.14,1.02.21,1.88.21v.89h-8.14v-.89c.85,0,1.48-.07,1.86-.21.39-.14.63-.42.74-.86.1-.43.16-1.08.16-1.92v-5.54h-9.33v5.54c0,.87.05,1.52.16,1.94.1.42.36.71.75.84.4.14,1.02.21,1.88.21v.89Z"/><path class="cls-2" d="m888.6,156.63h-.88l-.26-6.39h.88c.34,1.36.74,2.4,1.19,3.12.46.72,1.02,1.21,1.69,1.48.67.27,1.49.4,2.46.4.72,0,1.34-.1,1.85-.31s.91-.54,1.19-1.01c.29-.46.43-1.07.43-1.82,0-.87-.23-1.59-.7-2.16-.47-.57-1.06-1.08-1.78-1.52-.72-.44-1.47-.89-2.25-1.35-.76-.45-1.49-.94-2.19-1.45-.7-.51-1.28-1.12-1.72-1.84-.45-.71-.67-1.58-.67-2.6s.25-1.92.74-2.62c.49-.7,1.15-1.24,1.96-1.61.82-.37,1.72-.56,2.7-.56.87,0,1.55.07,2.02.22.47.15.85.3,1.12.46.28.16.53.24.75.24s.41-.06.56-.19c.14-.13.25-.35.33-.67h.74l.2,5.92h-.85c-.4-1.64-.93-2.85-1.59-3.64s-1.72-1.17-3.16-1.15c-.97,0-1.72.23-2.25.7-.53.46-.8,1.16-.8,2.09,0,.73.2,1.36.6,1.88.4.52.92.99,1.57,1.41.64.41,1.32.84,2.02,1.27.63.38,1.26.75,1.89,1.12.64.38,1.21.8,1.74,1.27.52.47.94,1.03,1.25,1.66s.47,1.39.47,2.28c0,1.14-.25,2.11-.75,2.9-.5.79-1.19,1.39-2.06,1.79-.87.4-1.86.61-2.96.61-.99,0-1.79-.07-2.4-.22-.62-.15-1.1-.3-1.45-.44-.35-.15-.64-.22-.87-.22-.19,0-.36.09-.51.27-.15.18-.24.41-.26.71Z"/><path class="cls-2" d="m916.17,156.51c-1.95,0-3.6-.43-4.92-1.3-1.33-.87-2.33-2.06-3-3.58-.67-1.52-1.01-3.24-1.01-5.15,0-2.15.4-3.98,1.2-5.48.8-1.5,1.9-2.64,3.3-3.43,1.4-.79,3.02-1.18,4.84-1.18,1.01,0,1.81.09,2.42.27.61.18,1.09.36,1.45.53.36.18.65.27.88.27s.4-.1.53-.31c.12-.21.27-.46.44-.76h.85v6.78h-.97c-.3-1.93-.94-3.33-1.92-4.2-.98-.87-2.2-1.3-3.66-1.3-2.05,0-3.63.76-4.74,2.28-1.11,1.52-1.66,3.6-1.66,6.25,0,1.97.29,3.58.87,4.83.58,1.24,1.38,2.16,2.4,2.75,1.02.59,2.2.89,3.53.89s2.46-.25,3.44-.76c.99-.5,1.88-1.21,2.67-2.12l.68.62c-.51.79-1.12,1.49-1.84,2.12-.71.62-1.54,1.11-2.49,1.46-.95.36-2.05.53-3.3.53Z"/><path class="cls-2" d="m939.07,156.19h-8.17v-.89c.85,0,1.47-.06,1.86-.19.39-.13.64-.41.74-.84.1-.43.16-1.08.16-1.95v-11.66c0-.77-.05-1.38-.14-1.82-.09-.44-.34-.76-.72-.93-.39-.18-1.02-.27-1.89-.27v-.89h8.17v.89c-.89,0-1.54.09-1.93.27-.4.18-.64.49-.73.93-.09.44-.13,1.05-.13,1.82v4.97h9.33v-4.97c0-.77-.05-1.38-.14-1.82-.1-.44-.34-.76-.72-.93-.39-.18-1.02-.27-1.89-.27v-.89h8.14v.89c-.89,0-1.54.09-1.93.27-.4.18-.64.48-.73.92-.08.43-.13,1.05-.13,1.84v11.66c0,.85.05,1.49.16,1.92.1.43.36.72.75.86.4.14,1.02.21,1.88.21v.89h-8.14v-.89c.85,0,1.48-.07,1.86-.21.39-.14.64-.42.74-.86.11-.43.16-1.08.16-1.92v-5.54h-9.33v5.54c0,.87.05,1.52.16,1.94.11.42.36.71.76.84.4.14,1.02.21,1.88.21v.89Z"/><path class="cls-2" d="m967.5,156.54c-1.88,0-3.5-.4-4.85-1.21-1.36-.81-2.4-1.97-3.13-3.48-.73-1.51-1.1-3.31-1.1-5.4s.36-3.77,1.1-5.28c.73-1.51,1.77-2.68,3.13-3.52,1.36-.84,2.97-1.26,4.85-1.26s3.52.41,4.87,1.23c1.35.82,2.38,1.96,3.1,3.43.72,1.47,1.08,3.18,1.08,5.14,0,2.07-.37,3.88-1.1,5.43-.73,1.55-1.77,2.76-3.12,3.63-1.35.87-2.96,1.3-4.84,1.3Zm.03-1.24c2.03,0,3.54-.76,4.54-2.28,1-1.52,1.49-3.77,1.49-6.75,0-1.78-.26-3.31-.77-4.6-.51-1.29-1.23-2.29-2.15-2.99-.92-.7-2-1.05-3.23-1.05-1.84,0-3.3.76-4.38,2.29-1.08,1.53-1.62,3.65-1.62,6.35s.51,4.98,1.52,6.6c1.01,1.62,2.55,2.43,4.6,2.43Z"/><path class="cls-2" d="m993.48,156.54c-1.88,0-3.5-.4-4.85-1.21-1.36-.81-2.4-1.97-3.13-3.48-.73-1.51-1.1-3.31-1.1-5.4s.36-3.77,1.1-5.28c.73-1.51,1.77-2.68,3.13-3.52,1.36-.84,2.97-1.26,4.85-1.26s3.52.41,4.87,1.23c1.35.82,2.38,1.96,3.1,3.43.72,1.47,1.08,3.18,1.08,5.14,0,2.07-.37,3.88-1.1,5.43-.73,1.55-1.77,2.76-3.12,3.63-1.35.87-2.96,1.3-4.84,1.3Zm.03-1.24c2.03,0,3.54-.76,4.54-2.28,1-1.52,1.49-3.77,1.49-6.75,0-1.78-.26-3.31-.77-4.6-.51-1.29-1.23-2.29-2.15-2.99-.92-.7-2-1.05-3.23-1.05-1.84,0-3.3.76-4.38,2.29-1.08,1.53-1.62,3.65-1.62,6.35s.51,4.98,1.52,6.6c1.01,1.62,2.55,2.43,4.6,2.43Z"/><path class="cls-2" d="m1024.27,156.19h-14.11v-.89c.76,0,1.32-.07,1.69-.21.37-.14.61-.4.73-.8.11-.39.17-.98.17-1.75v-12.05c0-.77-.06-1.36-.17-1.78-.11-.41-.36-.7-.73-.86-.37-.16-.93-.24-1.69-.24v-.89h8v.89c-.76,0-1.34.08-1.75.25-.41.17-.68.46-.83.87-.14.41-.21,1.01-.21,1.78v12.85c0,.65.15,1.08.46,1.27.3.2.87.3,1.71.3h1.31c.95,0,1.72-.07,2.31-.22.59-.15,1.06-.4,1.41-.75.35-.36.64-.82.88-1.41.24-.58.5-1.3.78-2.15h.91l-.85,5.77Z"/><path class="cls-2" d="m1051.44,156.19h-8.14v-.89c.83,0,1.45-.06,1.85-.19.4-.13.65-.39.77-.8.11-.4.17-1,.17-1.79v-12.4c0-.73-.09-1.27-.26-1.61-.17-.35-.46-.58-.85-.7-.4-.12-.96-.18-1.68-.18v-.89h7.82c1.48,0,2.86.16,4.14.49,1.28.33,2.39.86,3.34,1.61.95.75,1.69,1.74,2.23,2.96.54,1.22.81,2.74.81,4.56,0,1.7-.24,3.17-.73,4.41-.48,1.24-1.18,2.26-2.08,3.06-.9.8-1.98,1.39-3.23,1.78-1.25.39-2.65.58-4.18.58Zm-1.05-1.12c1.73,0,3.21-.24,4.44-.73,1.23-.48,2.18-1.34,2.85-2.56.66-1.22,1-2.94,1-5.15,0-2.82-.69-4.97-2.08-6.45-1.38-1.48-3.55-2.22-6.49-2.22h-.67c-.22,0-.46.02-.73.06v16.96c.29.02.56.04.84.06.28.02.55.03.84.03Z"/><path class="cls-2" d="m1073.01,156.19h-5.98v-.89c.53,0,.96-.09,1.28-.27.32-.18.64-.54.94-1.08.3-.54.68-1.38,1.14-2.5l6.03-14.86h1.17l6.74,16.07c.42.97.82,1.65,1.21,2.04.39.39.96.59,1.72.59v.89h-7.65v-.89c.28,0,.58-.02.88-.06s.56-.14.77-.3c.21-.16.31-.4.31-.74,0-.22-.03-.47-.1-.75-.07-.29-.2-.65-.38-1.08l-1.22-2.96-.2-.59-3.24-8.58h-.09l-3.33,8.58-.2.59-1.39,3.43c-.08.24-.15.47-.21.7-.07.23-.1.48-.1.75,0,.41.15.69.46.81.3.13.79.19,1.45.19v.89Zm7.28-6.48h-7.91l.43-1.18h7.06l.43,1.18Z"/><path class="cls-2" d="m1110.14,156.42h-.94l-11.78-15.84h-.8l-.51-1.15c-.36-.51-.68-.9-.95-1.15-.28-.26-.56-.43-.85-.52-.29-.09-.66-.13-1.1-.13v-.89h4.84l10.53,14.3h.14v-9.59c0-.93-.06-1.67-.17-2.22-.11-.55-.36-.96-.74-1.21-.38-.26-.98-.38-1.79-.38v-.89h6.71v.89c-.72,0-1.27.13-1.65.4-.38.27-.63.69-.75,1.27-.12.58-.18,1.35-.18,2.29v14.83Zm-10.27-.24h-6.66v-.89c.76,0,1.33-.08,1.71-.25.38-.17.64-.51.77-1.02.13-.51.2-1.26.2-2.25v-13.26h1.39v13.26c0,.99.07,1.73.2,2.23.13.5.39.84.77,1.02s.92.27,1.62.27v.89Z"/><path class="cls-2" d="m1128.86,156.51c-1.95,0-3.59-.43-4.92-1.3-1.33-.87-2.33-2.06-3-3.58-.67-1.52-1.01-3.24-1.01-5.15,0-2.15.4-3.98,1.19-5.48.8-1.5,1.9-2.64,3.3-3.43,1.4-.79,3.02-1.18,4.84-1.18,1.01,0,1.81.09,2.42.27.61.18,1.09.36,1.45.53.36.18.65.27.88.27s.4-.1.53-.31c.12-.21.27-.46.44-.76h.85v6.78h-.97c-.3-1.93-.94-3.33-1.92-4.2-.98-.87-2.2-1.3-3.66-1.3-2.05,0-3.63.76-4.74,2.28-1.11,1.52-1.66,3.6-1.66,6.25,0,1.97.29,3.58.87,4.83.58,1.24,1.38,2.16,2.4,2.75,1.02.59,2.2.89,3.53.89s2.46-.25,3.44-.76c.99-.5,1.88-1.21,2.67-2.12l.68.62c-.51.79-1.12,1.49-1.84,2.12-.71.62-1.54,1.11-2.49,1.46-.95.36-2.05.53-3.3.53Z"/><path class="cls-2" d="m1158.8,156.19h-15.19v-.89c.78,0,1.36-.05,1.75-.16.39-.11.65-.35.8-.73.14-.37.21-.95.21-1.72v-12.34c0-.75-.07-1.32-.21-1.72-.14-.39-.41-.66-.8-.8-.39-.14-.97-.21-1.75-.21v-.89h14.94l.17,4.85h-.91c-.13-.99-.34-1.73-.61-2.24-.28-.5-.72-.84-1.34-1.02-.62-.18-1.51-.27-2.69-.27h-4.18v7.52h3.33c.87,0,1.54-.08,1.99-.24.46-.16.77-.45.94-.89s.26-1.05.26-1.84h.91v6.87h-.91c0-.81-.09-1.41-.26-1.81-.17-.39-.48-.65-.94-.77-.46-.12-1.12-.18-1.99-.18h-3.33v8.14h3.67c1.1,0,1.99-.05,2.66-.16.67-.11,1.2-.31,1.59-.61.39-.3.71-.72.97-1.27.26-.55.53-1.27.81-2.16h.91l-.8,5.51Z"/><path class="cls-2" d="m1189.24,156.19h-8.25v-.89c.8,0,1.39-.06,1.79-.19.4-.13.66-.4.8-.83.13-.42.2-1.08.2-1.97v-14.24h-1.82c-1.04,0-1.83.11-2.35.33-.52.22-.9.61-1.12,1.18-.23.57-.45,1.4-.65,2.49h-.88l.31-5.33h15.73l.23,5.33h-.88c-.21-1.08-.43-1.91-.65-2.49-.23-.57-.6-.97-1.11-1.18-.51-.22-1.3-.33-2.36-.33h-1.79v14.24c0,.89.07,1.54.2,1.97.13.42.4.7.8.83s1.01.19,1.82.19v.89Z"/><path class="cls-2" d="m1214.91,156.19h-15.19v-.89c.78,0,1.36-.05,1.75-.16.39-.11.65-.35.8-.73.14-.37.21-.95.21-1.72v-12.34c0-.75-.07-1.32-.21-1.72-.14-.39-.41-.66-.8-.8-.39-.14-.97-.21-1.75-.21v-.89h14.94l.17,4.85h-.91c-.13-.99-.34-1.73-.61-2.24-.28-.5-.72-.84-1.34-1.02-.62-.18-1.51-.27-2.69-.27h-4.18v7.52h3.33c.87,0,1.54-.08,1.99-.24.46-.16.77-.45.94-.89.17-.43.26-1.05.26-1.84h.91v6.87h-.91c0-.81-.08-1.41-.26-1.81-.17-.39-.48-.65-.94-.77-.46-.12-1.12-.18-1.99-.18h-3.33v8.14h3.67c1.1,0,1.99-.05,2.66-.16.67-.11,1.2-.31,1.59-.61.39-.3.71-.72.97-1.27.26-.55.53-1.27.81-2.16h.91l-.8,5.51Z"/><path class="cls-2" d="m1227.57,156.19h-5.98v-.89c.53,0,.96-.09,1.28-.27s.64-.54.94-1.08c.3-.54.68-1.38,1.14-2.5l6.03-14.86h1.17l6.74,16.07c.42.97.82,1.65,1.21,2.04.39.39.96.59,1.72.59v.89h-7.65v-.89c.28,0,.58-.02.88-.06s.56-.14.77-.3c.21-.16.31-.4.31-.74,0-.22-.03-.47-.1-.75-.07-.29-.2-.65-.38-1.08l-1.22-2.96-.2-.59-3.24-8.58h-.09l-3.33,8.58-.2.59-1.39,3.43c-.08.24-.15.47-.21.7-.07.23-.1.48-.1.75,0,.41.15.69.46.81.3.13.79.19,1.45.19v.89Zm7.28-6.48h-7.91l.43-1.18h7.06l.43,1.18Z"/><path class="cls-2" d="m1254.43,156.19h-6.69v-.89c.78,0,1.36-.07,1.74-.22.38-.15.64-.47.77-.96.13-.49.2-1.24.2-2.25v-11.52c0-.75-.07-1.32-.2-1.7-.13-.38-.38-.65-.75-.8-.37-.15-.94-.22-1.69-.22v-.89h5.81l6,14.89h.11l5.98-14.89h5.41v.89c-.66,0-1.18.07-1.54.22-.36.15-.61.41-.74.8s-.2.94-.2,1.67v12.34c0,.71.07,1.26.2,1.64s.38.65.74.78c.36.14.88.21,1.56.21v.89h-7.57v-.89c.74,0,1.29-.07,1.65-.21.36-.14.6-.4.71-.78s.17-.93.17-1.64v-12.76h-.11l-6.63,16.28h-.68l-6.71-16.25h-.11v11.93c0,1.01.07,1.76.2,2.25.13.49.38.81.75.96.37.15.91.22,1.64.22v.89Z"/><path class="cls-2" d="m27.59,13.86h57.95c3.14,0,6.01,1.7,7.36,4.36l64.45,126.67c2.59,5.09-1.36,10.98-7.36,10.98h-63.81c-3.25,0-6.19-1.81-7.48-4.61L20.11,24.59c-2.34-5.07,1.61-10.73,7.48-10.73Z"/><path class="cls-2" d="m170.18,13.86h57.95c3.14,0,6.01,1.7,7.36,4.36l64.45,126.67c2.59,5.09-1.36,10.98-7.36,10.98h-63.81c-3.25,0-6.19-1.81-7.48-4.61l-58.59-126.67c-2.34-5.07,1.61-10.73,7.48-10.73Z"/><path class="cls-2" d="m379.27,24.59l-26.86,58.07-.63,1.34c-.55,1-1.37,1.87-2.34,2.5-1.18.82-2.63,1.26-4.18,1.26s-3-.45-4.18-1.26c-.97-.63-1.79-1.5-2.34-2.5l-.63-1.34-26.86-58.07c-1.42-3.1-.5-6.42,1.76-8.55l.03-.03c1.45-1.32,3.45-2.16,5.71-2.16h53.04c2.29,0,4.29.87,5.74,2.18,2.26,2.13,3.18,5.45,1.76,8.55Z"/><line class="cls-1" x1="412.37" y1="12.16" x2="412.37" y2="157.57"/></svg>