<?xml version="1.0" encoding="UTF-8"?><svg id="Layer_1" xmlns="http://www.w3.org/2000/svg" viewBox="0 0 1320 590"><defs><style>.cls-1{fill:#fff;stroke-width:0px;}</style></defs><path class="cls-1" d="m180.2,347.48h32.18l-40.83,123.54h-32.7l-26.65-85.65-26.82,85.65h-32.01l-40.83-123.54h33.05l25.26,89.97,27.68-89.28h28.72l27.68,89.46,25.26-90.15Z"/><path class="cls-1" d="m261.17,347.48h30.45v123.54h-30.45v-123.54Z"/><path class="cls-1" d="m352.7,347.48h30.45v98.45h74.06l-3.63,25.09h-100.88v-123.54Z"/><path class="cls-1" d="m507.39,347.48h56.41c23.99,0,42.22,5.25,54.68,15.74,12.46,10.5,18.69,25.84,18.69,46.03s-6.55,34.95-19.64,45.68c-13.09,10.73-31.87,16.09-56.32,16.09h-53.81v-123.54Zm98.63,61.6c0-24.68-13.96-37.03-41.87-37.03h-26.65v74.4h24.57c29.3,0,43.95-12.46,43.95-37.37Z"/><path class="cls-1" d="m686.47,409.25c0-12.57,2.71-23.73,8.13-33.48,5.42-9.75,13.32-17.42,23.7-23.01,10.38-5.59,23.01-8.39,37.89-8.39,34.61,0,55.6,14.3,62.98,42.91l-30.11,3.46c-2.66-7.5-6.58-12.92-11.77-16.26-5.19-3.34-12.23-5.02-21.11-5.02-11.88,0-21.2,3.46-27.94,10.38-6.75,6.92-10.12,16.73-10.12,29.41s3.37,22.49,10.12,29.41c6.75,6.92,16.23,10.38,28.46,10.38,19.26,0,30.57-7.38,33.91-22.15h30.63c-1.73,15-8.28,26.62-19.64,34.86-11.36,8.25-26.5,12.37-45.42,12.37-15,0-27.68-2.74-38.07-8.22-10.38-5.48-18.25-13.09-23.62-22.84-5.36-9.75-8.05-21.02-8.05-33.83Z"/><path class="cls-1" d="m888.22,471.02h-31.32l55.71-123.54h34.95l55.71,123.54h-32.18l-11.42-26.3h-60.56l-10.9,26.3Zm41.35-99.14l-20.94,49.66h42.05l-21.11-49.66Z"/><path class="cls-1" d="m1066.09,372.57h-47.58v-25.09h125.62v25.09h-47.58v98.45h-30.45v-98.45Z"/><path class="cls-1" d="m1276.84,436.42c0-3.81-1.56-6.83-4.67-9.08-3.11-2.25-8.25-3.89-15.4-4.93l-21.98-3.29c-16.84-2.65-29.07-6.98-36.68-12.98-7.61-6-11.42-14.3-11.42-24.92,0-11.65,5.28-20.7,15.83-27.17,10.55-6.46,25.12-9.69,43.69-9.69,17.19,0,30.48,2.88,39.88,8.65,9.4,5.77,15.43,14.71,18.08,26.82l-29.07,3.29c-2.19-5.77-5.6-9.92-10.21-12.46-4.62-2.54-11.13-3.81-19.55-3.81-9.11,0-16.15,1.15-21.11,3.46-4.96,2.31-7.44,5.65-7.44,10.04,0,3.92,1.47,6.86,4.41,8.82,2.94,1.96,8.28,3.52,16.01,4.67l25.95,4.15c15.46,2.42,26.7,6.64,33.74,12.63,7.03,6,10.55,14.36,10.55,25.09,0,12.46-5.13,21.97-15.4,28.55-10.27,6.58-25.21,9.86-44.81,9.86-39.68,0-60.97-13.96-63.85-41.87h30.45c1.27,6.57,4.64,11.45,10.12,14.62,5.48,3.17,13.29,4.76,23.45,4.76,9.57,0,16.87-1.3,21.89-3.89,5.02-2.6,7.53-6.37,7.53-11.33Z"/><path class="cls-1" d="m70.1,557.81h-1.08l-8.95-23.47c-.66-1.88-1.33-3.16-2.02-3.83-.69-.67-1.59-1.02-2.71-1.05v-1.34h11.11v1.34c-1.09,0-1.84.13-2.24.38-.4.25-.6.62-.6,1.1,0,.57.2,1.39.6,2.46l4.99,13.08,1.33,3.76h.22l5.08-13.66,2.02,3.45h-1.25l-6.5,17.78Zm14.29,0h-1.16l-6.72-18.45-.69-1.52-1.42-4.12c-.46-1.31-.88-2.27-1.25-2.87-.37-.6-.8-.98-1.29-1.14-.49-.16-1.15-.25-1.98-.25v-1.34h11.23v1.34c-2.18,0-3.27.51-3.27,1.52,0,.36.09.78.26,1.25.17.48.33.93.47,1.34l4.48,12.09,1.42,4.43h.22l4.91-14.87c.14-.48.27-.94.39-1.39s.21-.89.28-1.32c.07-.43.11-.83.11-1.19,0-.69-.23-1.17-.69-1.46-.46-.28-1.19-.42-2.2-.42v-1.34h8.87v1.34c-1,.03-1.76.27-2.28.72-.52.45-.98,1.24-1.38,2.37l-8.31,25.26Z"/><path class="cls-1" d="m128.51,557.54h-22.99v-1.34c1.18,0,2.06-.08,2.65-.25.59-.16.99-.53,1.21-1.1.21-.57.32-1.43.32-2.6v-18.68c0-1.13-.11-2-.32-2.6-.21-.6-.62-1-1.21-1.21-.59-.21-1.47-.31-2.65-.31v-1.34h22.6l.26,7.34h-1.38c-.2-1.49-.51-2.62-.92-3.38-.42-.76-1.09-1.28-2.02-1.54-.93-.27-2.29-.4-4.07-.4h-6.33v11.38h5.04c1.32,0,2.32-.12,3.01-.36.69-.24,1.16-.69,1.42-1.34.26-.66.39-1.58.39-2.78h1.38v10.39h-1.38c0-1.22-.13-2.13-.39-2.73-.26-.6-.73-.98-1.42-1.16-.69-.18-1.69-.27-3.01-.27h-5.04v12.31h5.55c1.66,0,3.01-.08,4.02-.25,1.02-.16,1.82-.47,2.41-.92.59-.45,1.08-1.09,1.46-1.93.39-.84.8-1.93,1.23-3.27h1.38l-1.21,8.33Z"/><path class="cls-1" d="m141.72,558.21h-1.34l-.39-9.67h1.34c.52,2.06,1.12,3.64,1.81,4.73.69,1.09,1.54,1.84,2.56,2.24,1.02.4,2.26.6,3.72.6,1.09,0,2.02-.16,2.8-.47.77-.31,1.38-.82,1.81-1.52.43-.7.65-1.62.65-2.75,0-1.31-.35-2.4-1.05-3.27-.7-.87-1.6-1.63-2.69-2.31-1.09-.67-2.22-1.35-3.4-2.04-1.15-.69-2.25-1.42-3.31-2.19-1.06-.78-1.93-1.7-2.6-2.78-.67-1.07-1.01-2.39-1.01-3.94s.37-2.9,1.12-3.96c.75-1.06,1.74-1.87,2.97-2.44,1.23-.57,2.6-.85,4.09-.85,1.32,0,2.34.11,3.06.34.72.22,1.28.46,1.7.69.42.24.8.36,1.14.36s.62-.1.84-.29c.21-.19.38-.53.5-1.01h1.12l.3,8.96h-1.29c-.6-2.48-1.41-4.31-2.41-5.51-1.01-1.19-2.6-1.78-4.78-1.75-1.46,0-2.6.35-3.4,1.05-.8.7-1.21,1.75-1.21,3.16,0,1.11.3,2.05.9,2.84.6.79,1.39,1.5,2.37,2.13.98.63,1.99,1.27,3.06,1.93.95.57,1.9,1.14,2.86,1.7.96.57,1.84,1.21,2.63,1.93.79.72,1.42,1.55,1.89,2.51.47.96.71,2.1.71,3.45,0,1.73-.38,3.19-1.14,4.39-.76,1.19-1.8,2.1-3.12,2.71-1.32.61-2.81.92-4.48.92-1.49,0-2.71-.11-3.64-.34-.93-.22-1.67-.45-2.2-.67-.53-.22-.97-.34-1.31-.34-.29,0-.54.13-.77.4-.23.27-.36.63-.39,1.08Z"/><path class="cls-1" d="m186.58,557.54h-12.48v-1.34c1.2,0,2.11-.1,2.71-.29.6-.19,1-.61,1.21-1.25.2-.64.3-1.64.3-2.98v-21.54h-2.76c-1.58,0-2.76.16-3.55.49-.79.33-1.36.93-1.7,1.79-.34.87-.67,2.12-.99,3.76h-1.34l.47-8.06h23.81l.34,8.06h-1.33c-.32-1.64-.65-2.89-.99-3.76-.34-.87-.9-1.46-1.68-1.79-.77-.33-1.97-.49-3.57-.49h-2.71v21.54c0,1.34.1,2.34.3,2.98.2.64.6,1.06,1.21,1.25.6.19,1.52.29,2.76.29v1.34Z"/><path class="cls-1" d="m223.68,558.08c-.92,0-1.77-.13-2.56-.38-.79-.25-1.41-.64-1.87-1.16-.46-.52-.69-1.19-.69-1.99,0-.69.17-1.22.49-1.61.33-.39.8-.58,1.4-.58.52,0,.93.14,1.25.42.32.28.58.63.8,1.03.21.4.42.81.62,1.23.2.42.42.77.67,1.05.24.28.57.43.97.43.83,0,1.38-.36,1.64-1.08.26-.72.39-1.85.39-3.4v-18c0-1.16-.06-2.08-.19-2.75-.13-.67-.49-1.14-1.08-1.41-.59-.27-1.57-.4-2.95-.4v-1.34h12.14v1.34c-1.18,0-2.05.13-2.63.4-.57.27-.94.74-1.1,1.41-.16.67-.24,1.59-.24,2.75v16.7c0,1.46-.17,2.67-.52,3.63-.34.96-.83,1.71-1.46,2.26-.63.55-1.38.93-2.24,1.14-.86.21-1.81.31-2.84.31Z"/><path class="cls-1" d="m259.07,558.08c-2.84,0-5.29-.61-7.34-1.84-2.05-1.22-3.63-2.98-4.73-5.26-1.1-2.28-1.66-5.01-1.66-8.17s.55-5.71,1.66-7.99c1.1-2.28,2.68-4.06,4.73-5.33,2.05-1.27,4.5-1.9,7.34-1.9s5.32.62,7.36,1.86c2.04,1.24,3.6,2.97,4.69,5.19,1.09,2.22,1.64,4.81,1.64,7.77,0,3.13-.55,5.87-1.66,8.22-1.11,2.34-2.68,4.17-4.71,5.49-2.04,1.31-4.48,1.97-7.32,1.97Zm.04-1.88c3.07,0,5.36-1.15,6.87-3.45,1.51-2.3,2.26-5.7,2.26-10.21,0-2.69-.39-5.01-1.16-6.96-.77-1.95-1.86-3.46-3.25-4.52-1.39-1.06-3.02-1.59-4.89-1.59-2.78,0-4.99,1.16-6.63,3.47-1.64,2.31-2.45,5.52-2.45,9.61s.77,7.54,2.3,9.99c1.53,2.45,3.85,3.67,6.95,3.67Z"/><path class="cls-1" d="m296.39,557.54h-12.35v-1.34c1.29,0,2.23-.1,2.82-.29.59-.19.96-.62,1.12-1.28.16-.66.24-1.64.24-2.96v-17.64c0-1.16-.07-2.08-.21-2.75-.14-.67-.51-1.14-1.1-1.41-.59-.27-1.54-.4-2.86-.4v-1.34h12.35v1.34c-1.35,0-2.32.13-2.93.4-.6.27-.97.74-1.1,1.41-.13.67-.19,1.59-.19,2.75v7.52h14.12v-7.52c0-1.16-.07-2.08-.21-2.75-.14-.67-.51-1.14-1.1-1.41-.59-.27-1.54-.4-2.86-.4v-1.34h12.31v1.34c-1.35,0-2.32.13-2.93.4-.6.27-.97.73-1.1,1.39-.13.66-.19,1.58-.19,2.78v17.64c0,1.28.08,2.26.24,2.91.16.66.54,1.09,1.14,1.3.6.21,1.55.31,2.84.31v1.34h-12.31v-1.34c1.29,0,2.23-.1,2.82-.31.59-.21.96-.64,1.12-1.3.16-.66.24-1.63.24-2.91v-8.37h-14.12v8.37c0,1.31.08,2.29.24,2.93.16.64.54,1.07,1.14,1.28.6.21,1.55.31,2.84.31v1.34Z"/><path class="cls-1" d="m350.37,557.9h-1.42l-17.82-23.96h-1.21l-.77-1.75c-.54-.78-1.03-1.36-1.44-1.75-.42-.39-.85-.65-1.29-.78-.45-.14-1-.2-1.66-.2v-1.34h7.32l15.93,21.63h.22v-14.51c0-1.4-.09-2.52-.26-3.36-.17-.83-.55-1.45-1.12-1.84-.57-.39-1.48-.58-2.71-.58v-1.34h10.16v1.34c-1.09,0-1.92.2-2.5.6-.57.4-.95,1.04-1.14,1.93-.19.88-.28,2.04-.28,3.47v22.44Zm-15.54-.36h-10.07v-1.34c1.15,0,2.01-.13,2.58-.38.57-.25.96-.77,1.16-1.54.2-.78.3-1.91.3-3.4v-20.06h2.11v20.06c0,1.49.1,2.62.3,3.38.2.76.59,1.28,1.16,1.54.57.27,1.39.4,2.45.4v1.34Z"/><path class="cls-1" d="m366.25,558.21h-1.34l-.39-9.67h1.34c.52,2.06,1.12,3.64,1.81,4.73.69,1.09,1.54,1.84,2.56,2.24,1.02.4,2.26.6,3.72.6,1.09,0,2.02-.16,2.8-.47.77-.31,1.38-.82,1.81-1.52.43-.7.65-1.62.65-2.75,0-1.31-.35-2.4-1.05-3.27-.7-.87-1.6-1.63-2.69-2.31-1.09-.67-2.22-1.35-3.4-2.04-1.15-.69-2.25-1.42-3.31-2.19-1.06-.78-1.93-1.7-2.6-2.78-.67-1.07-1.01-2.39-1.01-3.94s.37-2.9,1.12-3.96c.75-1.06,1.74-1.87,2.97-2.44,1.23-.57,2.6-.85,4.09-.85,1.32,0,2.34.11,3.06.34.72.22,1.28.46,1.7.69.41.24.8.36,1.14.36s.62-.1.84-.29c.22-.19.38-.53.5-1.01h1.12l.3,8.96h-1.29c-.6-2.48-1.41-4.31-2.41-5.51-1.01-1.19-2.6-1.78-4.78-1.75-1.46,0-2.6.35-3.4,1.05-.8.7-1.21,1.75-1.21,3.16,0,1.11.3,2.05.9,2.84.6.79,1.39,1.5,2.37,2.13.98.63,1.99,1.27,3.06,1.93.95.57,1.9,1.14,2.86,1.7.96.57,1.84,1.21,2.62,1.93.79.72,1.42,1.55,1.9,2.51.47.96.71,2.1.71,3.45,0,1.73-.38,3.19-1.14,4.39-.76,1.19-1.8,2.1-3.12,2.71-1.32.61-2.81.92-4.48.92-1.49,0-2.71-.11-3.64-.34-.93-.22-1.67-.45-2.2-.67-.53-.22-.97-.34-1.31-.34-.29,0-.55.13-.77.4-.23.27-.36.63-.39,1.08Z"/><path class="cls-1" d="m411.11,557.54h-12.48v-1.34c1.21,0,2.11-.1,2.71-.29.6-.19,1-.61,1.21-1.25.2-.64.3-1.64.3-2.98v-21.54h-2.75c-1.58,0-2.76.16-3.55.49-.79.33-1.36.93-1.7,1.79-.34.87-.67,2.12-.99,3.76h-1.33l.47-8.06h23.8l.34,8.06h-1.33c-.32-1.64-.65-2.89-.99-3.76-.35-.87-.9-1.46-1.68-1.79-.77-.33-1.97-.49-3.57-.49h-2.71v21.54c0,1.34.1,2.34.3,2.98.2.64.6,1.06,1.21,1.25s1.52.29,2.75.29v1.34Z"/><path class="cls-1" d="m440.85,558.08c-2.84,0-5.29-.61-7.34-1.84-2.05-1.22-3.63-2.98-4.74-5.26-1.1-2.28-1.66-5.01-1.66-8.17s.55-5.71,1.66-7.99c1.1-2.28,2.68-4.06,4.74-5.33,2.05-1.27,4.5-1.9,7.34-1.9s5.32.62,7.36,1.86c2.04,1.24,3.6,2.97,4.69,5.19,1.09,2.22,1.64,4.81,1.64,7.77,0,3.13-.55,5.87-1.66,8.22-1.1,2.34-2.68,4.17-4.71,5.49-2.04,1.31-4.48,1.97-7.32,1.97Zm.04-1.88c3.07,0,5.36-1.15,6.87-3.45,1.51-2.3,2.26-5.7,2.26-10.21,0-2.69-.39-5.01-1.16-6.96-.77-1.95-1.86-3.46-3.25-4.52-1.39-1.06-3.02-1.59-4.89-1.59-2.78,0-4.99,1.16-6.63,3.47-1.64,2.31-2.45,5.52-2.45,9.61s.77,7.54,2.3,9.99c1.53,2.45,3.85,3.67,6.95,3.67Z"/><path class="cls-1" d="m491.13,557.9h-1.42l-17.82-23.96h-1.21l-.77-1.75c-.55-.78-1.03-1.36-1.44-1.75-.42-.39-.85-.65-1.29-.78-.45-.14-1-.2-1.66-.2v-1.34h7.32l15.93,21.63h.21v-14.51c0-1.4-.09-2.52-.26-3.36-.17-.83-.54-1.45-1.12-1.84-.57-.39-1.48-.58-2.71-.58v-1.34h10.16v1.34c-1.09,0-1.92.2-2.5.6-.57.4-.95,1.04-1.14,1.93-.19.88-.28,2.04-.28,3.47v22.44Zm-15.54-.36h-10.07v-1.34c1.15,0,2.01-.13,2.58-.38.57-.25.96-.77,1.16-1.54.2-.78.3-1.91.3-3.4v-20.06h2.11v20.06c0,1.49.1,2.62.3,3.38.2.76.59,1.28,1.16,1.54.57.27,1.39.4,2.45.4v1.34Z"/><path class="cls-1" d="m535.38,557.54h-12.35v-1.34c1.29,0,2.23-.1,2.82-.29.59-.19.96-.62,1.12-1.28.16-.66.24-1.64.24-2.96v-17.64c0-1.16-.07-2.08-.22-2.75-.14-.67-.51-1.14-1.1-1.41-.59-.27-1.54-.4-2.86-.4v-1.34h12.35v1.34c-1.35,0-2.32.13-2.93.4-.6.27-.97.74-1.1,1.41-.13.67-.19,1.59-.19,2.75v7.52h14.12v-7.52c0-1.16-.07-2.08-.22-2.75-.14-.67-.51-1.14-1.1-1.41-.59-.27-1.54-.4-2.86-.4v-1.34h12.31v1.34c-1.35,0-2.32.13-2.93.4-.6.27-.97.73-1.1,1.39-.13.66-.19,1.58-.19,2.78v17.64c0,1.28.08,2.26.24,2.91.16.66.54,1.09,1.14,1.3.6.21,1.55.31,2.84.31v1.34h-12.31v-1.34c1.29,0,2.23-.1,2.82-.31.59-.21.96-.64,1.12-1.3.16-.66.24-1.63.24-2.91v-8.37h-14.12v8.37c0,1.31.08,2.29.24,2.93.16.64.54,1.07,1.14,1.28.6.21,1.55.31,2.84.31v1.34Z"/><path class="cls-1" d="m576.36,557.54h-12.4v-1.34c1.29,0,2.24-.11,2.84-.34.6-.22.99-.66,1.16-1.3.17-.64.26-1.6.26-2.89v-17.64c0-1.16-.07-2.08-.22-2.75-.14-.67-.51-1.14-1.1-1.41-.59-.27-1.57-.4-2.95-.4v-1.34h12.4v1.34c-1.35,0-2.32.13-2.93.4-.6.27-.97.74-1.1,1.41-.13.67-.19,1.59-.19,2.75v17.64c0,1.28.09,2.25.26,2.89.17.64.56,1.07,1.16,1.3.6.22,1.53.34,2.8.34v1.34Z"/><path class="cls-1" d="m601.37,558.03c-4.56,0-8-1.32-10.31-3.96-2.31-2.64-3.47-6.35-3.47-11.13,0-3.31.61-6.11,1.83-8.4,1.22-2.28,2.88-4.01,4.99-5.19,2.11-1.18,4.51-1.77,7.21-1.77,1.58,0,2.83.14,3.77.4.93.27,1.67.54,2.2.81.53.27.97.4,1.31.4.37,0,.65-.15.84-.45.19-.3.42-.69.71-1.16h1.25v10.26h-1.46c-.49-2.99-1.46-5.12-2.93-6.4-1.46-1.28-3.34-1.93-5.64-1.93-3.04,0-5.4,1.16-7.08,3.47-1.68,2.31-2.52,5.46-2.52,9.43,0,4.57.88,7.98,2.65,10.23,1.77,2.26,4.18,3.38,7.25,3.38,1.35,0,2.49-.21,3.42-.63.93-.42,1.83-.96,2.69-1.61v-4.84c0-1.07-.09-1.89-.26-2.44-.17-.55-.53-.93-1.08-1.12-.54-.19-1.36-.29-2.45-.29v-1.43h10.63v1.43c-1.21,0-2,.22-2.37.65-.37.43-.56,1.35-.56,2.75v6.49c-1.55.93-3.11,1.66-4.69,2.22-1.58.55-3.56.83-5.94.83Z"/><path class="cls-1" d="m637.92,557.54h-12.36v-1.34c1.29,0,2.23-.1,2.82-.29.59-.19.96-.62,1.12-1.28.16-.66.24-1.64.24-2.96v-17.64c0-1.16-.07-2.08-.22-2.75-.14-.67-.51-1.14-1.1-1.41-.59-.27-1.54-.4-2.86-.4v-1.34h12.36v1.34c-1.35,0-2.32.13-2.93.4-.6.27-.97.74-1.1,1.41-.13.67-.19,1.59-.19,2.75v7.52h14.12v-7.52c0-1.16-.07-2.08-.22-2.75-.14-.67-.51-1.14-1.1-1.41-.59-.27-1.54-.4-2.86-.4v-1.34h12.31v1.34c-1.35,0-2.32.13-2.93.4-.6.27-.97.73-1.1,1.39-.13.66-.19,1.58-.19,2.78v17.64c0,1.28.08,2.26.24,2.91.16.66.54,1.09,1.14,1.3.6.21,1.55.31,2.84.31v1.34h-12.31v-1.34c1.29,0,2.23-.1,2.82-.31.59-.21.96-.64,1.12-1.3.16-.66.24-1.63.24-2.91v-8.37h-14.12v8.37c0,1.31.08,2.29.24,2.93.16.64.54,1.07,1.14,1.28.6.21,1.55.31,2.84.31v1.34Z"/><path class="cls-1" d="m685.96,558.21h-1.33l-.39-9.67h1.33c.52,2.06,1.12,3.64,1.81,4.73.69,1.09,1.54,1.84,2.56,2.24,1.02.4,2.26.6,3.72.6,1.09,0,2.02-.16,2.8-.47.77-.31,1.38-.82,1.81-1.52.43-.7.65-1.62.65-2.75,0-1.31-.35-2.4-1.05-3.27-.7-.87-1.6-1.63-2.69-2.31-1.09-.67-2.22-1.35-3.4-2.04-1.15-.69-2.25-1.42-3.32-2.19-1.06-.78-1.93-1.7-2.6-2.78-.67-1.07-1.01-2.39-1.01-3.94s.37-2.9,1.12-3.96c.75-1.06,1.74-1.87,2.97-2.44,1.23-.57,2.6-.85,4.09-.85,1.32,0,2.34.11,3.06.34.72.22,1.28.46,1.7.69.42.24.8.36,1.14.36s.63-.1.84-.29c.21-.19.38-.53.49-1.01h1.12l.3,8.96h-1.29c-.6-2.48-1.41-4.31-2.41-5.51s-2.6-1.78-4.78-1.75c-1.46,0-2.6.35-3.4,1.05-.8.7-1.2,1.75-1.2,3.16,0,1.11.3,2.05.9,2.84.6.79,1.39,1.5,2.37,2.13.97.63,1.99,1.27,3.06,1.93.95.57,1.9,1.14,2.86,1.7.96.57,1.84,1.21,2.63,1.93.79.72,1.42,1.55,1.89,2.51.47.96.71,2.1.71,3.45,0,1.73-.38,3.19-1.14,4.39-.76,1.19-1.8,2.1-3.12,2.71-1.32.61-2.81.92-4.48.92-1.49,0-2.71-.11-3.64-.34-.93-.22-1.67-.45-2.2-.67-.53-.22-.97-.34-1.31-.34-.29,0-.54.13-.77.4-.23.27-.36.63-.39,1.08Z"/><path class="cls-1" d="m727.67,558.03c-2.96,0-5.44-.66-7.45-1.97-2.01-1.31-3.52-3.12-4.54-5.42-1.02-2.3-1.53-4.9-1.53-7.79,0-3.25.6-6.02,1.81-8.28,1.2-2.27,2.87-4,4.99-5.19,2.12-1.19,4.56-1.79,7.32-1.79,1.52,0,2.74.14,3.66.4.92.27,1.65.54,2.2.81.55.27.99.4,1.34.4s.61-.16.8-.47c.19-.31.41-.69.67-1.14h1.29v10.26h-1.46c-.46-2.93-1.43-5.04-2.91-6.36-1.48-1.31-3.32-1.97-5.53-1.97-3.1,0-5.49,1.15-7.17,3.45-1.68,2.3-2.52,5.45-2.52,9.45,0,2.99.44,5.42,1.31,7.3.88,1.88,2.09,3.27,3.64,4.16,1.55.9,3.33,1.34,5.34,1.34s3.72-.38,5.21-1.14c1.49-.76,2.84-1.83,4.05-3.2l1.03.94c-.77,1.19-1.7,2.26-2.78,3.2-1.08.94-2.33,1.68-3.77,2.22-1.44.54-3.1.81-4.99.81Z"/><path class="cls-1" d="m762.32,557.54h-12.35v-1.34c1.29,0,2.23-.1,2.82-.29.59-.19.96-.62,1.12-1.28.16-.66.24-1.64.24-2.96v-17.64c0-1.16-.07-2.08-.22-2.75-.14-.67-.51-1.14-1.1-1.41-.59-.27-1.54-.4-2.86-.4v-1.34h12.35v1.34c-1.35,0-2.32.13-2.93.4-.6.27-.97.74-1.1,1.41-.13.67-.19,1.59-.19,2.75v7.52h14.12v-7.52c0-1.16-.07-2.08-.22-2.75-.14-.67-.51-1.14-1.1-1.41-.59-.27-1.54-.4-2.86-.4v-1.34h12.31v1.34c-1.35,0-2.32.13-2.93.4-.6.27-.97.73-1.1,1.39-.13.66-.19,1.58-.19,2.78v17.64c0,1.28.08,2.26.24,2.91.16.66.54,1.09,1.14,1.3.6.21,1.55.31,2.84.31v1.34h-12.31v-1.34c1.29,0,2.23-.1,2.82-.31.59-.21.96-.64,1.12-1.3.16-.66.24-1.63.24-2.91v-8.37h-14.12v8.37c0,1.31.08,2.29.24,2.93.16.64.54,1.07,1.14,1.28.6.21,1.55.31,2.84.31v1.34Z"/><path class="cls-1" d="m805.32,558.08c-2.84,0-5.29-.61-7.34-1.84-2.05-1.22-3.63-2.98-4.74-5.26-1.11-2.28-1.66-5.01-1.66-8.17s.55-5.71,1.66-7.99c1.1-2.28,2.68-4.06,4.74-5.33,2.05-1.27,4.5-1.9,7.34-1.9s5.32.62,7.36,1.86c2.04,1.24,3.6,2.97,4.69,5.19,1.09,2.22,1.64,4.81,1.64,7.77,0,3.13-.55,5.87-1.66,8.22-1.1,2.34-2.68,4.17-4.71,5.49-2.04,1.31-4.48,1.97-7.32,1.97Zm.04-1.88c3.07,0,5.36-1.15,6.87-3.45,1.51-2.3,2.26-5.7,2.26-10.21,0-2.69-.39-5.01-1.16-6.96-.77-1.95-1.86-3.46-3.25-4.52-1.39-1.06-3.02-1.59-4.89-1.59-2.78,0-4.99,1.16-6.63,3.47-1.64,2.31-2.45,5.52-2.45,9.61s.77,7.54,2.3,9.99c1.54,2.45,3.85,3.67,6.95,3.67Z"/><path class="cls-1" d="m844.62,558.08c-2.84,0-5.29-.61-7.34-1.84-2.05-1.22-3.63-2.98-4.74-5.26-1.11-2.28-1.66-5.01-1.66-8.17s.55-5.71,1.66-7.99c1.1-2.28,2.68-4.06,4.74-5.33,2.05-1.27,4.5-1.9,7.34-1.9s5.32.62,7.36,1.86c2.04,1.24,3.6,2.97,4.69,5.19,1.09,2.22,1.64,4.81,1.64,7.77,0,3.13-.55,5.87-1.66,8.22-1.1,2.34-2.68,4.17-4.71,5.49-2.04,1.31-4.48,1.97-7.32,1.97Zm.04-1.88c3.07,0,5.36-1.15,6.87-3.45,1.51-2.3,2.26-5.7,2.26-10.21,0-2.69-.39-5.01-1.16-6.96-.77-1.95-1.86-3.46-3.25-4.52-1.39-1.06-3.02-1.59-4.89-1.59-2.78,0-4.99,1.16-6.63,3.47-1.64,2.31-2.45,5.52-2.45,9.61s.77,7.54,2.3,9.99c1.54,2.45,3.85,3.67,6.95,3.67Z"/><path class="cls-1" d="m891.2,557.54h-21.35v-1.34c1.15,0,2-.1,2.56-.31.56-.21.93-.61,1.1-1.21.17-.6.26-1.48.26-2.64v-18.23c0-1.16-.09-2.06-.26-2.69-.17-.63-.54-1.06-1.1-1.3-.56-.24-1.41-.36-2.56-.36v-1.34h12.1v1.34c-1.15,0-2.03.13-2.65.38-.62.25-1.03.69-1.25,1.32-.22.63-.32,1.52-.32,2.69v19.44c0,.98.23,1.63.69,1.93.46.3,1.32.45,2.58.45h1.98c1.43,0,2.6-.11,3.49-.34.89-.22,1.6-.6,2.13-1.14.53-.54.97-1.25,1.33-2.13.36-.88.75-1.96,1.18-3.25h1.38l-1.29,8.73Z"/><path class="cls-1" d="m932.31,557.54h-12.31v-1.34c1.26,0,2.2-.1,2.8-.29.6-.19.99-.6,1.16-1.21.17-.61.26-1.52.26-2.71v-18.76c0-1.1-.13-1.92-.39-2.44-.26-.52-.69-.87-1.29-1.05-.6-.18-1.45-.27-2.54-.27v-1.34h11.84c2.24,0,4.33.25,6.26.74,1.94.49,3.62,1.31,5.06,2.44,1.43,1.14,2.56,2.63,3.38,4.48.82,1.85,1.23,4.15,1.23,6.9,0,2.57-.37,4.79-1.1,6.67-.73,1.88-1.78,3.43-3.14,4.63-1.36,1.21-2.99,2.1-4.89,2.69-1.9.58-4,.87-6.33.87Zm-1.59-1.7c2.61,0,4.85-.37,6.72-1.1,1.87-.73,3.3-2.02,4.3-3.87,1.01-1.85,1.51-4.45,1.51-7.79,0-4.27-1.05-7.52-3.14-9.76-2.09-2.24-5.37-3.36-9.81-3.36h-1.01c-.33,0-.7.03-1.1.09v25.66c.43.03.85.06,1.27.09.42.03.84.04,1.27.04Z"/><path class="cls-1" d="m964.94,557.54h-9.04v-1.34c.8,0,1.45-.13,1.94-.4.49-.27.96-.81,1.42-1.63.46-.82,1.03-2.08,1.72-3.78l9.13-22.48h1.77l10.2,24.32c.63,1.46,1.24,2.49,1.83,3.09.59.6,1.46.9,2.6.9v1.34h-11.58v-1.34c.43,0,.88-.03,1.33-.09s.85-.21,1.16-.45c.31-.24.47-.61.47-1.12,0-.33-.05-.71-.15-1.14-.1-.43-.3-.98-.58-1.63l-1.85-4.48-.3-.9-4.91-12.99h-.13l-5.04,12.99-.3.9-2.11,5.19c-.12.36-.22.71-.32,1.05-.1.34-.15.72-.15,1.14,0,.63.23,1.04.69,1.23.46.19,1.19.29,2.2.29v1.34Zm11.02-9.81h-11.97l.65-1.79h10.68l.65,1.79Z"/><path class="cls-1" d="m1021.11,557.9h-1.42l-17.82-23.96h-1.2l-.77-1.75c-.54-.78-1.03-1.36-1.44-1.75-.42-.39-.85-.65-1.29-.78-.45-.14-1-.2-1.66-.2v-1.34h7.32l15.93,21.63h.22v-14.51c0-1.4-.09-2.52-.26-3.36-.17-.83-.54-1.45-1.12-1.84-.57-.39-1.48-.58-2.71-.58v-1.34h10.16v1.34c-1.09,0-1.92.2-2.5.6-.57.4-.95,1.04-1.14,1.93-.19.88-.28,2.04-.28,3.47v22.44Zm-15.54-.36h-10.07v-1.34c1.15,0,2.01-.13,2.58-.38.57-.25.96-.77,1.16-1.54.2-.78.3-1.91.3-3.4v-20.06h2.11v20.06c0,1.49.1,2.62.3,3.38.2.76.59,1.28,1.16,1.54s1.39.4,2.45.4v1.34Z"/><path class="cls-1" d="m1049.44,558.03c-2.96,0-5.44-.66-7.45-1.97-2.01-1.31-3.52-3.12-4.54-5.42-1.02-2.3-1.53-4.9-1.53-7.79,0-3.25.6-6.02,1.81-8.28,1.2-2.27,2.87-4,4.99-5.19,2.12-1.19,4.56-1.79,7.32-1.79,1.52,0,2.74.14,3.66.4.92.27,1.65.54,2.2.81.54.27.99.4,1.33.4s.61-.16.8-.47c.19-.31.41-.69.67-1.14h1.29v10.26h-1.46c-.46-2.93-1.43-5.04-2.91-6.36-1.48-1.31-3.32-1.97-5.53-1.97-3.1,0-5.49,1.15-7.17,3.45-1.68,2.3-2.52,5.45-2.52,9.45,0,2.99.44,5.42,1.31,7.3.87,1.88,2.09,3.27,3.64,4.16,1.55.9,3.33,1.34,5.34,1.34s3.72-.38,5.21-1.14c1.49-.76,2.84-1.83,4.05-3.2l1.03.94c-.77,1.19-1.7,2.26-2.78,3.2-1.08.94-2.33,1.68-3.77,2.22-1.43.54-3.1.81-4.99.81Z"/><path class="cls-1" d="m1094.72,557.54h-22.99v-1.34c1.18,0,2.06-.08,2.65-.25.59-.16.99-.53,1.2-1.1.22-.57.32-1.43.32-2.6v-18.68c0-1.13-.11-2-.32-2.6-.22-.6-.62-1-1.2-1.21-.59-.21-1.47-.31-2.65-.31v-1.34h22.6l.26,7.34h-1.38c-.2-1.49-.51-2.62-.93-3.38-.42-.76-1.09-1.28-2.02-1.54-.93-.27-2.29-.4-4.07-.4h-6.33v11.38h5.04c1.32,0,2.32-.12,3.01-.36.69-.24,1.16-.69,1.42-1.34s.39-1.58.39-2.78h1.38v10.39h-1.38c0-1.22-.13-2.13-.39-2.73-.26-.6-.73-.98-1.42-1.16-.69-.18-1.69-.27-3.01-.27h-5.04v12.31h5.55c1.66,0,3-.08,4.02-.25,1.02-.16,1.82-.47,2.41-.92.59-.45,1.07-1.09,1.46-1.93.39-.84.8-1.93,1.23-3.27h1.38l-1.2,8.33Z"/><path class="cls-1" d="m1140.78,557.54h-12.48v-1.34c1.21,0,2.11-.1,2.71-.29.6-.19,1.01-.61,1.21-1.25.2-.64.3-1.64.3-2.98v-21.54h-2.76c-1.58,0-2.76.16-3.55.49-.79.33-1.36.93-1.7,1.79-.35.87-.67,2.12-.99,3.76h-1.33l.47-8.06h23.8l.35,8.06h-1.33c-.32-1.64-.65-2.89-.99-3.76-.34-.87-.9-1.46-1.68-1.79-.77-.33-1.96-.49-3.57-.49h-2.71v21.54c0,1.34.1,2.34.3,2.98.2.64.6,1.06,1.2,1.25s1.52.29,2.75.29v1.34Z"/><path class="cls-1" d="m1179.61,557.54h-22.99v-1.34c1.18,0,2.06-.08,2.65-.25.59-.16.99-.53,1.21-1.1.21-.57.32-1.43.32-2.6v-18.68c0-1.13-.11-2-.32-2.6-.22-.6-.62-1-1.21-1.21-.59-.21-1.47-.31-2.65-.31v-1.34h22.6l.26,7.34h-1.38c-.2-1.49-.51-2.62-.92-3.38-.42-.76-1.09-1.28-2.02-1.54-.93-.27-2.29-.4-4.07-.4h-6.33v11.38h5.04c1.32,0,2.32-.12,3.01-.36.69-.24,1.16-.69,1.42-1.34.26-.66.39-1.58.39-2.78h1.38v10.39h-1.38c0-1.22-.13-2.13-.39-2.73-.26-.6-.73-.98-1.42-1.16-.69-.18-1.69-.27-3.01-.27h-5.04v12.31h5.55c1.67,0,3.01-.08,4.02-.25,1.02-.16,1.82-.47,2.41-.92.59-.45,1.08-1.09,1.46-1.93.39-.84.8-1.93,1.23-3.27h1.38l-1.21,8.33Z"/><path class="cls-1" d="m1198.77,557.54h-9.04v-1.34c.8,0,1.45-.13,1.94-.4s.96-.81,1.42-1.63c.46-.82,1.03-2.08,1.72-3.78l9.13-22.48h1.77l10.2,24.32c.63,1.46,1.24,2.49,1.83,3.09.59.6,1.46.9,2.6.9v1.34h-11.58v-1.34c.43,0,.88-.03,1.33-.09.46-.06.85-.21,1.16-.45.31-.24.47-.61.47-1.12,0-.33-.05-.71-.15-1.14-.1-.43-.3-.98-.58-1.63l-1.85-4.48-.3-.9-4.91-12.99h-.13l-5.04,12.99-.3.9-2.11,5.19c-.12.36-.22.71-.32,1.05-.1.34-.15.72-.15,1.14,0,.63.23,1.04.69,1.23.46.19,1.19.29,2.2.29v1.34Zm11.02-9.81h-11.97l.65-1.79h10.68l.65,1.79Z"/><path class="cls-1" d="m1239.4,557.54h-10.12v-1.34c1.18,0,2.05-.11,2.63-.34.57-.22.96-.71,1.16-1.46.2-.75.3-1.88.3-3.4v-17.42c0-1.13-.1-1.99-.3-2.57-.2-.58-.58-.98-1.14-1.21-.56-.22-1.41-.34-2.56-.34v-1.34h8.78l9.08,22.53h.17l9.04-22.53h8.18v1.34c-1,0-1.78.11-2.32.34-.55.22-.92.63-1.12,1.21-.2.58-.3,1.43-.3,2.53v18.68c0,1.07.1,1.9.3,2.49.2.58.57.98,1.12,1.19.54.21,1.33.31,2.37.31v1.34h-11.45v-1.34c1.12,0,1.95-.1,2.5-.31.54-.21.9-.6,1.08-1.19.17-.58.26-1.41.26-2.49v-19.3h-.17l-10.03,24.63h-1.03l-10.16-24.59h-.17v18.05c0,1.52.1,2.66.3,3.4.2.75.58,1.23,1.14,1.46.56.22,1.38.34,2.47.34v1.34Z"/><path class="cls-1" d="m417.57,31.79h81.64c4.43,0,8.46,2.39,10.37,6.14l90.79,178.44c3.65,7.17-1.91,15.47-10.37,15.47h-89.89c-4.58,0-8.72-2.55-10.54-6.5l-82.54-178.44c-3.3-7.14,2.26-15.11,10.54-15.11Z"/><path class="cls-1" d="m618.43,31.79h81.64c4.43,0,8.46,2.39,10.37,6.14l90.79,178.44c3.65,7.17-1.91,15.47-10.37,15.47h-89.89c-4.58,0-8.72-2.55-10.54-6.5l-82.54-178.44c-3.3-7.14,2.26-15.11,10.54-15.11Z"/><path class="cls-1" d="m912.99,46.91l-37.84,81.8-.89,1.89c-.78,1.41-1.93,2.63-3.3,3.52-1.67,1.15-3.71,1.78-5.89,1.78s-4.23-.63-5.89-1.78c-1.37-.89-2.52-2.11-3.3-3.52l-.89-1.89-37.84-81.8c-2-4.37-.7-9.04,2.48-12.05l.04-.04c2.04-1.85,4.86-3.04,8.04-3.04h74.72c3.22,0,6.04,1.22,8.08,3.08,3.19,3,4.48,7.67,2.48,12.05Z"/></svg>